<?xml version="1.0" encoding="UTF-8" standalone="no"?>
<svg width="640px" height="412px" viewBox="0 0 640 412" version="1.1" xmlns="http://www.w3.org/2000/svg" xmlns:xlink="http://www.w3.org/1999/xlink" xmlns:sketch="http://www.bohemiancoding.com/sketch/ns">
    <!-- Generator: Sketch 3.5.2 (25235) - http://www.bohemiancoding.com/sketch -->
    <title>Artboard 1</title>
    <desc>Created with Sketch.</desc>
    <defs></defs>
    <g id="Page-1" stroke="none" stroke-width="1" fill="none" fill-rule="evenodd" sketch:type="MSPage">
        <g id="Artboard-1" sketch:type="MSArtboardGroup" fill="#FFFFFF">
            <g id="schoolhouse-copy-2" sketch:type="MSLayerGroup" transform="translate(75.000000, 75.000000)">
                <g id="Group" sketch:type="MSShapeGroup">
                    <path d="M229.125777,72.65625 L197.176918,72.65625 C196.731859,72.65625 196.366275,72.296875 196.366275,71.859375 L196.366275,23.296875 C196.366275,22.859375 196.731859,22.5 197.176918,22.5 L229.125777,22.5 C229.570836,22.5 229.93642,22.859375 229.93642,23.296875 L229.93642,71.875 C229.920525,72.3125 229.570836,72.65625 229.125777,72.65625 L229.125777,72.65625 Z M197.971666,71.078125 L228.315135,71.078125 L228.315135,24.09375 L197.971666,24.09375 L197.971666,71.078125 L197.971666,71.078125 Z" id="Shape"></path>
                    <path d="M225.438148,24.09375 C224.993089,24.09375 224.627505,23.734375 224.627505,23.296875 L224.627505,17.75 L201.67519,17.75 L201.67519,23.296875 C201.67519,23.734375 201.309606,24.09375 200.864547,24.09375 C200.419489,24.09375 200.053905,23.734375 200.053905,23.296875 L200.053905,16.96875 C200.053905,16.53125 200.419489,16.171875 200.864547,16.171875 L225.438148,16.171875 C225.883207,16.171875 226.248791,16.53125 226.248791,16.96875 L226.248791,23.296875 C226.232896,23.734375 225.883207,24.09375 225.438148,24.09375 L225.438148,24.09375 Z" id="Shape"></path>
                    <path d="M217.077402,42.25 L208.462336,42.25 C208.176227,42.25 207.906012,42.09375 207.762958,41.859375 L203.455425,34.53125 C203.31237,34.28125 203.31237,33.984375 203.455425,33.734375 L207.762958,26.40625 C207.906012,26.15625 208.176227,26.015625 208.462336,26.015625 L217.077402,26.015625 C217.363511,26.015625 217.633725,26.171875 217.77678,26.40625 L222.084312,33.734375 C222.227367,33.984375 222.227367,34.28125 222.084312,34.53125 L217.77678,41.859375 C217.633725,42.09375 217.363511,42.25 217.077402,42.25 L217.077402,42.25 Z M208.939185,40.671875 L216.616448,40.671875 L220.463027,34.125 L216.616448,27.578125 L208.939185,27.578125 L205.092605,34.125 L208.939185,40.671875 L208.939185,40.671875 Z" id="Shape"></path>
                    <path d="M212.769869,42.25 C212.32481,42.25 211.959226,41.890625 211.959226,41.453125 L211.959226,26.78125 C211.959226,26.34375 212.32481,25.984375 212.769869,25.984375 C213.214927,25.984375 213.580511,26.34375 213.580511,26.78125 L213.580511,41.453125 C213.580511,41.890625 213.214927,42.25 212.769869,42.25 L212.769869,42.25 Z" id="Shape"></path>
                    <path d="M221.384934,34.921875 L204.154803,34.921875 C203.709744,34.921875 203.34416,34.5625 203.34416,34.125 C203.34416,33.6875 203.709744,33.328125 204.154803,33.328125 L221.384934,33.328125 C221.829993,33.328125 222.195577,33.6875 222.195577,34.125 C222.195577,34.5625 221.829993,34.921875 221.384934,34.921875 L221.384934,34.921875 Z" id="Shape"></path>
                    <path d="M219.429855,31.578125 L206.125777,31.578125 C205.680719,31.578125 205.315135,31.21875 205.315135,30.78125 C205.315135,30.34375 205.680719,29.984375 206.125777,29.984375 L219.429855,29.984375 C219.874914,29.984375 220.240498,30.34375 220.240498,30.78125 C220.224603,31.21875 219.874914,31.578125 219.429855,31.578125 L219.429855,31.578125 Z" id="Shape"></path>
                    <path d="M219.429855,38 L206.125777,38 C205.680719,38 205.315135,37.640625 205.315135,37.203125 C205.315135,36.765625 205.680719,36.40625 206.125777,36.40625 L219.429855,36.40625 C219.874914,36.40625 220.240498,36.765625 220.240498,37.203125 C220.240498,37.640625 219.874914,38 219.429855,38 L219.429855,38 Z" id="Shape"></path>
                    <path d="M225.469938,63.328125 L201.214236,63.328125 C200.769178,63.328125 200.403594,62.96875 200.403594,62.53125 L200.403594,51.4375 C200.403594,51 200.769178,50.640625 201.214236,50.640625 L225.469938,50.640625 C225.914997,50.640625 226.280581,51 226.280581,51.4375 L226.280581,62.53125 C226.264686,62.984375 225.914997,63.328125 225.469938,63.328125 L225.469938,63.328125 Z M202.008984,61.75 L224.659295,61.75 L224.659295,52.25 L202.008984,52.25 L202.008984,61.75 L202.008984,61.75 Z" id="Shape"></path>
                    <path d="M225.469938,57.796875 L201.214236,57.796875 C200.769178,57.796875 200.403594,57.4375 200.403594,57 C200.403594,56.5625 200.769178,56.203125 201.214236,56.203125 L225.469938,56.203125 C225.914997,56.203125 226.280581,56.5625 226.280581,57 C226.264686,57.4375 225.914997,57.796875 225.469938,57.796875 L225.469938,57.796875 Z" id="Shape"></path>
                    <path d="M219.191431,63.328125 C218.746372,63.328125 218.380788,62.96875 218.380788,62.53125 L218.380788,51.4375 C218.380788,51 218.746372,50.640625 219.191431,50.640625 C219.636489,50.640625 220.002073,51 220.002073,51.4375 L220.002073,62.53125 C220.002073,62.984375 219.636489,63.328125 219.191431,63.328125 L219.191431,63.328125 Z" id="Shape"></path>
                    <path d="M207.476849,63.328125 C207.03179,63.328125 206.666206,62.96875 206.666206,62.53125 L206.666206,51.4375 C206.666206,51 207.03179,50.640625 207.476849,50.640625 C207.921907,50.640625 208.287491,51 208.287491,51.4375 L208.287491,62.53125 C208.271596,62.984375 207.921907,63.328125 207.476849,63.328125 L207.476849,63.328125 Z" id="Shape"></path>
                    <path d="M213.342087,63.328125 C212.897028,63.328125 212.531444,62.96875 212.531444,62.53125 L212.531444,51.4375 C212.531444,51 212.897028,50.640625 213.342087,50.640625 C213.787146,50.640625 214.15273,51 214.15273,51.4375 L214.15273,62.53125 C214.136835,62.984375 213.787146,63.328125 213.342087,63.328125 L213.342087,63.328125 Z" id="Shape"></path>
                    <path d="M197.176918,72.65625 L165.228058,72.65625 C164.782999,72.65625 164.417415,72.296875 164.417415,71.859375 L164.417415,23.296875 C164.417415,22.859375 164.782999,22.5 165.228058,22.5 L197.176918,22.5 C197.621977,22.5 197.98756,22.859375 197.98756,23.296875 L197.98756,71.875 C197.971666,72.3125 197.621977,72.65625 197.176918,72.65625 L197.176918,72.65625 Z M166.022806,71.078125 L196.366275,71.078125 L196.366275,24.09375 L166.022806,24.09375 L166.022806,71.078125 L166.022806,71.078125 Z" id="Shape"></path>
                    <path d="M193.473393,24.09375 C193.028334,24.09375 192.662751,23.734375 192.662751,23.296875 L192.662751,17.75 L169.710435,17.75 L169.710435,23.296875 C169.710435,23.734375 169.344851,24.09375 168.899793,24.09375 C168.454734,24.09375 168.08915,23.734375 168.08915,23.296875 L168.08915,16.96875 C168.08915,16.53125 168.454734,16.171875 168.899793,16.171875 L193.473393,16.171875 C193.918452,16.171875 194.284036,16.53125 194.284036,16.96875 L194.284036,23.296875 C194.284036,23.734375 193.918452,24.09375 193.473393,24.09375 L193.473393,24.09375 Z" id="Shape"></path>
                    <path d="M185.128542,42.25 L176.513476,42.25 C176.227367,42.25 175.957153,42.09375 175.814098,41.859375 L171.506565,34.53125 C171.363511,34.28125 171.363511,33.984375 171.506565,33.734375 L175.814098,26.40625 C175.957153,26.15625 176.227367,26.015625 176.513476,26.015625 L185.128542,26.015625 C185.414651,26.015625 185.684865,26.171875 185.82792,26.40625 L190.135453,33.734375 C190.278507,33.984375 190.278507,34.28125 190.135453,34.53125 L185.82792,41.859375 C185.684865,42.09375 185.414651,42.25 185.128542,42.25 L185.128542,42.25 Z M176.97443,40.671875 L184.651693,40.671875 L188.498272,34.125 L184.651693,27.578125 L176.97443,27.578125 L173.127851,34.125 L176.97443,40.671875 L176.97443,40.671875 Z" id="Shape"></path>
                    <path d="M180.821009,42.25 C180.37595,42.25 180.010366,41.890625 180.010366,41.453125 L180.010366,26.78125 C180.010366,26.34375 180.37595,25.984375 180.821009,25.984375 C181.266068,25.984375 181.631652,26.34375 181.631652,26.78125 L181.631652,41.453125 C181.631652,41.890625 181.266068,42.25 180.821009,42.25 L180.821009,42.25 Z" id="Shape"></path>
                    <path d="M189.436075,34.921875 L172.205943,34.921875 C171.760885,34.921875 171.395301,34.5625 171.395301,34.125 C171.395301,33.6875 171.760885,33.328125 172.205943,33.328125 L189.436075,33.328125 C189.881133,33.328125 190.246717,33.6875 190.246717,34.125 C190.246717,34.5625 189.881133,34.921875 189.436075,34.921875 L189.436075,34.921875 Z" id="Shape"></path>
                    <path d="M187.480995,31.578125 L174.176918,31.578125 C173.731859,31.578125 173.366275,31.21875 173.366275,30.78125 C173.366275,30.34375 173.731859,29.984375 174.176918,29.984375 L187.480995,29.984375 C187.926054,29.984375 188.291638,30.34375 188.291638,30.78125 C188.275743,31.21875 187.926054,31.578125 187.480995,31.578125 L187.480995,31.578125 Z" id="Shape"></path>
                    <path d="M187.480995,38 L174.176918,38 C173.731859,38 173.366275,37.640625 173.366275,37.203125 C173.366275,36.765625 173.731859,36.40625 174.176918,36.40625 L187.480995,36.40625 C187.926054,36.40625 188.291638,36.765625 188.291638,37.203125 C188.291638,37.640625 187.926054,38 187.480995,38 L187.480995,38 Z" id="Shape"></path>
                    <path d="M193.505183,63.328125 L169.249482,63.328125 C168.804423,63.328125 168.438839,62.96875 168.438839,62.53125 L168.438839,51.4375 C168.438839,51 168.804423,50.640625 169.249482,50.640625 L193.505183,50.640625 C193.950242,50.640625 194.315826,51 194.315826,51.4375 L194.315826,62.53125 C194.315826,62.984375 193.950242,63.328125 193.505183,63.328125 L193.505183,63.328125 Z M170.060124,61.75 L192.710435,61.75 L192.710435,52.25 L170.060124,52.25 L170.060124,61.75 L170.060124,61.75 Z" id="Shape"></path>
                    <path d="M193.505183,57.796875 L169.249482,57.796875 C168.804423,57.796875 168.438839,57.4375 168.438839,57 C168.438839,56.5625 168.804423,56.203125 169.249482,56.203125 L193.505183,56.203125 C193.950242,56.203125 194.315826,56.5625 194.315826,57 C194.315826,57.4375 193.950242,57.796875 193.505183,57.796875 L193.505183,57.796875 Z" id="Shape"></path>
                    <path d="M187.242571,63.328125 C186.797512,63.328125 186.431928,62.96875 186.431928,62.53125 L186.431928,51.4375 C186.431928,51 186.797512,50.640625 187.242571,50.640625 C187.68763,50.640625 188.053214,51 188.053214,51.4375 L188.053214,62.53125 C188.053214,62.984375 187.68763,63.328125 187.242571,63.328125 L187.242571,63.328125 Z" id="Shape"></path>
                    <path d="M175.527989,63.328125 C175.08293,63.328125 174.717346,62.96875 174.717346,62.53125 L174.717346,51.4375 C174.717346,51 175.08293,50.640625 175.527989,50.640625 C175.973048,50.640625 176.338632,51 176.338632,51.4375 L176.338632,62.53125 C176.322737,62.984375 175.973048,63.328125 175.527989,63.328125 L175.527989,63.328125 Z" id="Shape"></path>
                    <path d="M181.377332,63.328125 C180.932274,63.328125 180.56669,62.96875 180.56669,62.53125 L180.56669,51.4375 C180.56669,51 180.932274,50.640625 181.377332,50.640625 C181.822391,50.640625 182.187975,51 182.187975,51.4375 L182.187975,62.53125 C182.187975,62.984375 181.822391,63.328125 181.377332,63.328125 L181.377332,63.328125 Z" id="Shape"></path>
                    <path d="M158.059433,72.65625 C157.614375,72.65625 157.248791,72.296875 157.248791,71.859375 L157.248791,1.65625 L72.6876296,1.65625 L72.6876296,71.875 C72.6876296,72.3125 72.3220456,72.671875 71.8769869,72.671875 C71.4319281,72.671875 71.0663442,72.3125 71.0663442,71.875 L71.0663442,0.859375 C71.0663442,0.421875 71.4319281,0.0625 71.8769869,0.0625 L158.075328,0.0625 C158.520387,0.0625 158.885971,0.421875 158.885971,0.859375 L158.885971,71.875 C158.870076,72.3125 158.504492,72.65625 158.059433,72.65625 L158.059433,72.65625 Z" id="Shape"></path>
                    <path d="M152.702833,20.921875 L78.5846579,20.921875 C78.1395992,20.921875 77.7740152,20.5625 77.7740152,20.125 L77.7740152,11.421875 C77.7740152,10.984375 78.1395992,10.625 78.5846579,10.625 L152.686938,10.625 C153.131997,10.625 153.497581,10.984375 153.497581,11.421875 L153.497581,20.125 C153.497581,20.5625 153.147892,20.921875 152.702833,20.921875 L152.702833,20.921875 Z M79.3953006,19.34375 L151.892191,19.34375 L151.892191,12.21875 L79.3953006,12.21875 L79.3953006,19.34375 L79.3953006,19.34375 Z" id="Shape"></path>
                    <path d="M147.600553,55.375 L83.6869385,55.375 C83.2418798,55.375 82.8762958,55.015625 82.8762958,54.578125 L82.8762958,24.09375 L81.2709053,24.09375 C80.8258466,24.09375 80.4602626,23.734375 80.4602626,23.296875 L80.4602626,20.125 C80.4602626,19.6875 80.8258466,19.328125 81.2709053,19.328125 C81.7159641,19.328125 82.081548,19.6875 82.081548,20.125 L82.081548,22.5 L83.6869385,22.5 C84.1319972,22.5 84.4975812,22.859375 84.4975812,23.296875 L84.4975812,53.78125 L146.78991,53.78125 L146.78991,23.296875 C146.78991,22.859375 147.155494,22.5 147.600553,22.5 L149.205943,22.5 L149.205943,20.125 C149.205943,19.6875 149.571527,19.328125 150.016586,19.328125 C150.461645,19.328125 150.827229,19.6875 150.827229,20.125 L150.827229,23.296875 C150.827229,23.734375 150.461645,24.09375 150.016586,24.09375 L148.411196,24.09375 L148.411196,54.578125 C148.395301,55.015625 148.045612,55.375 147.600553,55.375 L147.600553,55.375 Z" id="Shape"></path>
                    <path d="M137.666206,24.09375 C137.221147,24.09375 136.855563,23.734375 136.855563,23.296875 L136.855563,20.125 C136.855563,19.6875 137.221147,19.328125 137.666206,19.328125 C138.111265,19.328125 138.476849,19.6875 138.476849,20.125 L138.476849,23.296875 C138.460954,23.734375 138.111265,24.09375 137.666206,24.09375 L137.666206,24.09375 Z" id="Shape"></path>
                    <path d="M140.082239,24.09375 L137.666206,24.09375 C137.221147,24.09375 136.855563,23.734375 136.855563,23.296875 C136.855563,22.859375 137.221147,22.5 137.666206,22.5 L140.082239,22.5 C140.527298,22.5 140.892882,22.859375 140.892882,23.296875 C140.876987,23.734375 140.527298,24.09375 140.082239,24.09375 L140.082239,24.09375 Z" id="Shape"></path>
                    <path d="M140.082239,55.375 C139.63718,55.375 139.271596,55.015625 139.271596,54.578125 L139.271596,23.296875 C139.271596,22.859375 139.63718,22.5 140.082239,22.5 C140.527298,22.5 140.892882,22.859375 140.892882,23.296875 L140.892882,54.578125 C140.876987,55.015625 140.527298,55.375 140.082239,55.375 L140.082239,55.375 Z" id="Shape"></path>
                    <path d="M93.8914997,24.09375 C93.4464409,24.09375 93.0808569,23.734375 93.0808569,23.296875 L93.0808569,20.125 C93.0808569,19.6875 93.4464409,19.328125 93.8914997,19.328125 C94.3365584,19.328125 94.7021424,19.6875 94.7021424,20.125 L94.7021424,23.296875 C94.7021424,23.734375 94.3365584,24.09375 93.8914997,24.09375 L93.8914997,24.09375 Z" id="Shape"></path>
                    <path d="M93.8914997,24.09375 L91.4754665,24.09375 C91.0304077,24.09375 90.6648238,23.734375 90.6648238,23.296875 C90.6648238,22.859375 91.0304077,22.5 91.4754665,22.5 L93.8914997,22.5 C94.3365584,22.5 94.7021424,22.859375 94.7021424,23.296875 C94.7021424,23.734375 94.3365584,24.09375 93.8914997,24.09375 L93.8914997,24.09375 Z" id="Shape"></path>
                    <path d="M91.4754665,55.375 C91.0304077,55.375 90.6648238,55.015625 90.6648238,54.578125 L90.6648238,23.296875 C90.6648238,22.859375 91.0304077,22.5 91.4754665,22.5 C91.9205252,22.5 92.2861092,22.859375 92.2861092,23.296875 L92.2861092,54.578125 C92.2861092,55.015625 91.9205252,55.375 91.4754665,55.375 L91.4754665,55.375 Z" id="Shape"></path>
                    <path d="M150.016586,60.25 L81.2709053,60.25 C80.8258466,60.25 80.4602626,59.890625 80.4602626,59.453125 L80.4602626,54.5625 C80.4602626,54.125 80.8258466,53.765625 81.2709053,53.765625 L150.016586,53.765625 C150.461645,53.765625 150.827229,54.125 150.827229,54.5625 L150.827229,59.453125 C150.811334,59.90625 150.461645,60.25 150.016586,60.25 L150.016586,60.25 Z M82.081548,58.671875 L149.205943,58.671875 L149.205943,55.375 L82.081548,55.375 L82.081548,58.671875 L82.081548,58.671875 Z" id="Shape"></path>
                    <path d="M152.702833,65.140625 L78.5846579,65.140625 C78.1395992,65.140625 77.7740152,64.78125 77.7740152,64.34375 L77.7740152,59.453125 C77.7740152,59.015625 78.1395992,58.65625 78.5846579,58.65625 L152.686938,58.65625 C153.131997,58.65625 153.497581,59.015625 153.497581,59.453125 L153.497581,64.34375 C153.497581,64.78125 153.147892,65.140625 152.702833,65.140625 L152.702833,65.140625 Z M79.3953006,63.546875 L151.892191,63.546875 L151.892191,60.25 L79.3953006,60.25 L79.3953006,63.546875 L79.3953006,63.546875 Z" id="Shape"></path>
                    <path d="M155.389081,70.015625 L74.6427091,70.015625 C74.1976503,70.015625 73.8320663,69.65625 73.8320663,69.21875 L73.8320663,64.328125 C73.8320663,63.890625 74.1976503,63.53125 74.6427091,63.53125 L155.373186,63.53125 C155.818245,63.53125 156.183829,63.890625 156.183829,64.328125 L156.183829,69.21875 C156.183829,69.671875 155.83414,70.015625 155.389081,70.015625 L155.389081,70.015625 Z M75.4533518,68.4375 L154.578438,68.4375 L154.578438,65.140625 L75.4533518,65.140625 L75.4533518,68.4375 L75.4533518,68.4375 Z" id="Shape"></path>
                    <path d="M158.059433,74.90625 L71.8769869,74.90625 C71.4319281,74.90625 71.0663442,74.546875 71.0663442,74.109375 L71.0663442,69.21875 C71.0663442,68.78125 71.4319281,68.421875 71.8769869,68.421875 L158.075328,68.421875 C158.520387,68.421875 158.885971,68.78125 158.885971,69.21875 L158.885971,74.109375 C158.870076,74.546875 158.504492,74.90625 158.059433,74.90625 L158.059433,74.90625 Z M72.6876296,73.3125 L157.264686,73.3125 L157.264686,70.015625 L72.6876296,70.015625 L72.6876296,73.3125 L72.6876296,73.3125 Z" id="Shape"></path>
                    <path d="M152.702833,65.140625 C152.257775,65.140625 151.892191,64.78125 151.892191,64.34375 L151.892191,59.453125 C151.892191,59.015625 152.257775,58.65625 152.702833,58.65625 C153.147892,58.65625 153.513476,59.015625 153.513476,59.453125 L153.513476,64.34375 C153.497581,64.78125 153.147892,65.140625 152.702833,65.140625 L152.702833,65.140625 Z" id="Shape"></path>
                    <path d="M165.212163,72.65625 L158.059433,72.65625 C157.614375,72.65625 157.248791,72.296875 157.248791,71.859375 L157.248791,20.140625 C157.248791,19.703125 157.614375,19.34375 158.059433,19.34375 L168.899793,19.34375 C169.344851,19.34375 169.710435,19.703125 169.710435,20.140625 L169.710435,23.3125 C169.710435,23.75 169.344851,24.109375 168.899793,24.109375 C168.454734,24.109375 168.08915,23.75 168.08915,23.3125 L168.08915,20.9375 L158.854181,20.9375 L158.854181,71.09375 L165.196268,71.09375 C165.641327,71.09375 166.006911,71.453125 166.006911,71.890625 C166.022806,72.3125 165.657222,72.65625 165.212163,72.65625 L165.212163,72.65625 Z" id="Shape"></path>
                    <path d="M32.7753974,72.65625 L0.826537664,72.65625 C0.381478922,72.65625 0.0158949551,72.296875 0.0158949551,71.859375 L0.0158949551,23.296875 C0.0158949551,22.859375 0.381478922,22.5 0.826537664,22.5 L32.7753974,22.5 C33.2204561,22.5 33.5860401,22.859375 33.5860401,23.296875 L33.5860401,71.875 C33.5860401,72.3125 33.2204561,72.65625 32.7753974,72.65625 L32.7753974,72.65625 Z M1.62128542,71.078125 L31.9647547,71.078125 L31.9647547,24.09375 L1.62128542,24.09375 L1.62128542,71.078125 L1.62128542,71.078125 Z" id="Shape"></path>
                    <path d="M29.0877678,24.09375 C28.6427091,24.09375 28.2771251,23.734375 28.2771251,23.296875 L28.2771251,17.75 L5.32480995,17.75 L5.32480995,23.296875 C5.32480995,23.734375 4.95922598,24.09375 4.51416724,24.09375 C4.0691085,24.09375 3.70352453,23.734375 3.70352453,23.296875 L3.70352453,16.96875 C3.70352453,16.53125 4.0691085,16.171875 4.51416724,16.171875 L29.0877678,16.171875 C29.5328265,16.171875 29.8984105,16.53125 29.8984105,16.96875 L29.8984105,23.296875 C29.8825155,23.734375 29.5328265,24.09375 29.0877678,24.09375 L29.0877678,24.09375 Z" id="Shape"></path>
                    <path d="M21.4740843,42.25 L12.8590187,42.25 C12.5729095,42.25 12.3026952,42.09375 12.1596406,41.859375 L7.85210781,34.53125 C7.70905321,34.28125 7.70905321,33.984375 7.85210781,33.734375 L12.1596406,26.40625 C12.3026952,26.15625 12.5729095,26.015625 12.8590187,26.015625 L21.4740843,26.015625 C21.7601935,26.015625 22.0304077,26.171875 22.1734623,26.40625 L26.4809952,33.734375 C26.6240498,33.984375 26.6240498,34.28125 26.4809952,34.53125 L22.1734623,41.859375 C22.0304077,42.09375 21.7601935,42.25 21.4740843,42.25 L21.4740843,42.25 Z M13.3199724,40.671875 L20.9972357,40.671875 L24.8438148,34.125 L20.9972357,27.578125 L13.3199724,27.578125 L9.47339323,34.125 L13.3199724,40.671875 L13.3199724,40.671875 Z" id="Shape"></path>
                    <path d="M17.1665515,42.25 C16.7214927,42.25 16.3559088,41.890625 16.3559088,41.453125 L16.3559088,26.78125 C16.3559088,26.34375 16.7214927,25.984375 17.1665515,25.984375 C17.6116102,25.984375 17.9771942,26.34375 17.9771942,26.78125 L17.9771942,41.453125 C17.9771942,41.890625 17.6116102,42.25 17.1665515,42.25 L17.1665515,42.25 Z" id="Shape"></path>
                    <path d="M25.7816171,34.921875 L8.55148583,34.921875 C8.10642709,34.921875 7.74084312,34.5625 7.74084312,34.125 C7.74084312,33.6875 8.10642709,33.328125 8.55148583,33.328125 L25.7816171,33.328125 C26.2266759,33.328125 26.5922598,33.6875 26.5922598,34.125 C26.5922598,34.5625 26.2266759,34.921875 25.7816171,34.921875 L25.7816171,34.921875 Z" id="Shape"></path>
                    <path d="M23.8265377,31.578125 L10.5224603,31.578125 C10.0774015,31.578125 9.71181755,31.21875 9.71181755,30.78125 C9.71181755,30.34375 10.0774015,29.984375 10.5224603,29.984375 L23.8265377,29.984375 C24.2715964,29.984375 24.6371804,30.34375 24.6371804,30.78125 C24.6212854,31.21875 24.2715964,31.578125 23.8265377,31.578125 L23.8265377,31.578125 Z" id="Shape"></path>
                    <path d="M23.8265377,38 L10.5224603,38 C10.0774015,38 9.71181755,37.640625 9.71181755,37.203125 C9.71181755,36.765625 10.0774015,36.40625 10.5224603,36.40625 L23.8265377,36.40625 C24.2715964,36.40625 24.6371804,36.765625 24.6371804,37.203125 C24.6371804,37.640625 24.2715964,38 23.8265377,38 L23.8265377,38 Z" id="Shape"></path>
                    <path d="M28.7380788,63.328125 L4.48237733,63.328125 C4.03731859,63.328125 3.67173462,62.96875 3.67173462,62.53125 L3.67173462,51.4375 C3.67173462,51 4.03731859,50.640625 4.48237733,50.640625 L28.7380788,50.640625 C29.1831375,50.640625 29.5487215,51 29.5487215,51.4375 L29.5487215,62.53125 C29.5328265,62.984375 29.1831375,63.328125 28.7380788,63.328125 L28.7380788,63.328125 Z M5.27712509,61.75 L27.9274361,61.75 L27.9274361,52.25 L5.27712509,52.25 L5.27712509,61.75 L5.27712509,61.75 Z" id="Shape"></path>
                    <path d="M28.7380788,57.796875 L4.48237733,57.796875 C4.03731859,57.796875 3.67173462,57.4375 3.67173462,57 C3.67173462,56.5625 4.03731859,56.203125 4.48237733,56.203125 L28.7380788,56.203125 C29.1831375,56.203125 29.5487215,56.5625 29.5487215,57 C29.5328265,57.4375 29.1831375,57.796875 28.7380788,57.796875 L28.7380788,57.796875 Z" id="Shape"></path>
                    <path d="M10.7449896,63.328125 C10.2999309,63.328125 9.93434692,62.96875 9.93434692,62.53125 L9.93434692,51.4375 C9.93434692,51 10.2999309,50.640625 10.7449896,50.640625 C11.1900484,50.640625 11.5556323,51 11.5556323,51.4375 L11.5556323,62.53125 C11.5556323,62.984375 11.1900484,63.328125 10.7449896,63.328125 L10.7449896,63.328125 Z" id="Shape"></path>
                    <path d="M22.4754665,63.328125 C22.0304077,63.328125 21.6648238,62.96875 21.6648238,62.53125 L21.6648238,51.4375 C21.6648238,51 22.0304077,50.640625 22.4754665,50.640625 C22.9205252,50.640625 23.2861092,51 23.2861092,51.4375 L23.2861092,62.53125 C23.2702142,62.984375 22.9205252,63.328125 22.4754665,63.328125 L22.4754665,63.328125 Z" id="Shape"></path>
                    <path d="M16.6102281,63.328125 C16.1651693,63.328125 15.7995853,62.96875 15.7995853,62.53125 L15.7995853,51.4375 C15.7995853,51 16.1651693,50.640625 16.6102281,50.640625 C17.0552868,50.640625 17.4208708,51 17.4208708,51.4375 L17.4208708,62.53125 C17.4049758,62.984375 17.0552868,63.328125 16.6102281,63.328125 L16.6102281,63.328125 Z" id="Shape"></path>
                    <path d="M64.7242571,72.65625 L32.7753974,72.65625 C32.3303386,72.65625 31.9647547,72.296875 31.9647547,71.859375 L31.9647547,23.296875 C31.9647547,22.859375 32.3303386,22.5 32.7753974,22.5 L64.7242571,22.5 C65.1693158,22.5 65.5348998,22.859375 65.5348998,23.296875 L65.5348998,71.875 C65.5348998,72.3125 65.1693158,72.65625 64.7242571,72.65625 L64.7242571,72.65625 Z M33.5860401,71.078125 L63.9295093,71.078125 L63.9295093,24.09375 L33.5860401,24.09375 L33.5860401,71.078125 L33.5860401,71.078125 Z" id="Shape"></path>
                    <path d="M61.0366275,24.09375 C60.5915688,24.09375 60.2259848,23.734375 60.2259848,23.296875 L60.2259848,17.75 L37.2736697,17.75 L37.2736697,23.296875 C37.2736697,23.734375 36.9080857,24.09375 36.463027,24.09375 C36.0179682,24.09375 35.6523842,23.734375 35.6523842,23.296875 L35.6523842,16.96875 C35.6523842,16.53125 36.0179682,16.171875 36.463027,16.171875 L61.0366275,16.171875 C61.4816862,16.171875 61.8472702,16.53125 61.8472702,16.96875 L61.8472702,23.296875 C61.8313753,23.734375 61.4816862,24.09375 61.0366275,24.09375 L61.0366275,24.09375 Z" id="Shape"></path>
                    <path d="M53.422944,42.25 L44.8078784,42.25 C44.5217692,42.25 44.2515549,42.09375 44.1085003,41.859375 L39.8009675,34.53125 C39.6579129,34.28125 39.6579129,33.984375 39.8009675,33.734375 L44.1085003,26.40625 C44.2515549,26.15625 44.5217692,26.015625 44.8078784,26.015625 L53.422944,26.015625 C53.7090532,26.015625 53.9792674,26.171875 54.122322,26.40625 L58.4298549,33.734375 C58.5729095,33.984375 58.5729095,34.28125 58.4298549,34.53125 L54.122322,41.859375 C53.9792674,42.09375 53.7090532,42.25 53.422944,42.25 L53.422944,42.25 Z M45.284727,40.671875 L52.9619903,40.671875 L56.8085695,34.125 L52.9619903,27.578125 L45.284727,27.578125 L41.4381479,34.125 L45.284727,40.671875 L45.284727,40.671875 Z" id="Shape"></path>
                    <path d="M49.1154112,42.25 C48.6703525,42.25 48.3047685,41.890625 48.3047685,41.453125 L48.3047685,26.78125 C48.3047685,26.34375 48.6703525,25.984375 49.1154112,25.984375 C49.5604699,25.984375 49.9260539,26.34375 49.9260539,26.78125 L49.9260539,41.453125 C49.9260539,41.890625 49.5604699,42.25 49.1154112,42.25 L49.1154112,42.25 Z" id="Shape"></path>
                    <path d="M57.7304768,34.921875 L40.5003455,34.921875 C40.0552868,34.921875 39.6897028,34.5625 39.6897028,34.125 C39.6897028,33.6875 40.0552868,33.328125 40.5003455,33.328125 L57.7304768,33.328125 C58.1755356,33.328125 58.5411196,33.6875 58.5411196,34.125 C58.5411196,34.5625 58.1755356,34.921875 57.7304768,34.921875 L57.7304768,34.921875 Z" id="Shape"></path>
                    <path d="M55.7753974,31.578125 L42.47132,31.578125 C42.0262612,31.578125 41.6606773,31.21875 41.6606773,30.78125 C41.6606773,30.34375 42.0262612,29.984375 42.47132,29.984375 L55.7753974,29.984375 C56.2204561,29.984375 56.5860401,30.34375 56.5860401,30.78125 C56.5701451,31.21875 56.2204561,31.578125 55.7753974,31.578125 L55.7753974,31.578125 Z" id="Shape"></path>
                    <path d="M55.7753974,38 L42.47132,38 C42.0262612,38 41.6606773,37.640625 41.6606773,37.203125 C41.6606773,36.765625 42.0262612,36.40625 42.47132,36.40625 L55.7753974,36.40625 C56.2204561,36.40625 56.5860401,36.765625 56.5860401,37.203125 C56.5860401,37.640625 56.2204561,38 55.7753974,38 L55.7753974,38 Z" id="Shape"></path>
                    <path d="M60.6869385,63.328125 L36.431237,63.328125 C35.9861783,63.328125 35.6205943,62.96875 35.6205943,62.53125 L35.6205943,51.4375 C35.6205943,51 35.9861783,50.640625 36.431237,50.640625 L60.6869385,50.640625 C61.1319972,50.640625 61.4975812,51 61.4975812,51.4375 L61.4975812,62.53125 C61.4975812,62.984375 61.1319972,63.328125 60.6869385,63.328125 L60.6869385,63.328125 Z M37.2418798,61.75 L59.8921907,61.75 L59.8921907,52.25 L37.2418798,52.25 L37.2418798,61.75 L37.2418798,61.75 Z" id="Shape"></path>
                    <path d="M60.6869385,57.796875 L36.431237,57.796875 C35.9861783,57.796875 35.6205943,57.4375 35.6205943,57 C35.6205943,56.5625 35.9861783,56.203125 36.431237,56.203125 L60.6869385,56.203125 C61.1319972,56.203125 61.4975812,56.5625 61.4975812,57 C61.4975812,57.4375 61.1319972,57.796875 60.6869385,57.796875 L60.6869385,57.796875 Z" id="Shape"></path>
                    <path d="M42.6938493,63.328125 C42.2487906,63.328125 41.8832066,62.96875 41.8832066,62.53125 L41.8832066,51.4375 C41.8832066,51 42.2487906,50.640625 42.6938493,50.640625 C43.1389081,50.640625 43.5044921,51 43.5044921,51.4375 L43.5044921,62.53125 C43.5044921,62.984375 43.1389081,63.328125 42.6938493,63.328125 L42.6938493,63.328125 Z" id="Shape"></path>
                    <path d="M54.4243262,63.328125 C53.9792674,63.328125 53.6136835,62.96875 53.6136835,62.53125 L53.6136835,51.4375 C53.6136835,51 53.9792674,50.640625 54.4243262,50.640625 C54.8693849,50.640625 55.2349689,51 55.2349689,51.4375 L55.2349689,62.53125 C55.2349689,62.984375 54.8693849,63.328125 54.4243262,63.328125 L54.4243262,63.328125 Z" id="Shape"></path>
                    <path d="M48.5590878,63.328125 C48.114029,63.328125 47.7484451,62.96875 47.7484451,62.53125 L47.7484451,51.4375 C47.7484451,51 48.114029,50.640625 48.5590878,50.640625 C49.0041465,50.640625 49.3697305,51 49.3697305,51.4375 L49.3697305,62.53125 C49.3697305,62.984375 49.0041465,63.328125 48.5590878,63.328125 L48.5590878,63.328125 Z" id="Shape"></path>
                    <path d="M71.8769869,72.65625 L64.7242571,72.65625 C64.2791983,72.65625 63.9136144,72.296875 63.9136144,71.859375 C63.9136144,71.421875 64.2791983,71.0625 64.7242571,71.0625 L71.0663442,71.0625 L71.0663442,20.90625 L61.8313753,20.90625 L61.8313753,23.28125 C61.8313753,23.71875 61.4657913,24.078125 61.0207326,24.078125 C60.5756738,24.078125 60.2100898,23.71875 60.2100898,23.28125 L60.2100898,20.109375 C60.2100898,19.671875 60.5756738,19.3125 61.0207326,19.3125 L71.8610919,19.3125 C72.3061507,19.3125 72.6717346,19.671875 72.6717346,20.109375 L72.6717346,71.875 C72.6876296,72.3125 72.3220456,72.65625 71.8769869,72.65625 L71.8769869,72.65625 Z" id="Shape"></path>
                    <path d="M124.552868,55.15625 L107.036628,55.15625 C106.750518,55.15625 106.480304,55 106.337249,54.765625 L97.5950242,39.859375 C97.4519696,39.609375 97.4519696,39.3125 97.5950242,39.0625 L106.353144,24.15625 C106.496199,23.90625 106.766413,23.765625 107.052522,23.765625 L124.552868,23.765625 C124.838977,23.765625 125.109191,23.921875 125.252246,24.15625 L134.010366,39.0625 C134.153421,39.3125 134.153421,39.609375 134.010366,39.859375 L125.252246,54.765625 C125.093296,55.015625 124.838977,55.15625 124.552868,55.15625 L124.552868,55.15625 Z M107.513476,53.578125 L124.091914,53.578125 L132.373186,39.46875 L124.091914,25.359375 L107.513476,25.359375 L99.2322046,39.46875 L107.513476,53.578125 L107.513476,53.578125 Z" id="Shape"></path>
                    <path d="M109.023497,55.15625 C108.578438,55.15625 108.212854,54.796875 108.212854,54.359375 L108.212854,24.5625 C108.212854,24.125 108.578438,23.765625 109.023497,23.765625 C109.468556,23.765625 109.83414,24.125 109.83414,24.5625 L109.83414,54.375 C109.818245,54.8125 109.468556,55.15625 109.023497,55.15625 L109.023497,55.15625 Z" id="Shape"></path>
                    <path d="M122.438839,55.15625 C121.99378,55.15625 121.628196,54.796875 121.628196,54.359375 L121.628196,24.5625 C121.628196,24.125 121.99378,23.765625 122.438839,23.765625 C122.883898,23.765625 123.249482,24.125 123.249482,24.5625 L123.249482,54.375 C123.249482,54.8125 122.883898,55.15625 122.438839,55.15625 L122.438839,55.15625 Z" id="Shape"></path>
                    <path d="M109.023497,40.265625 L98.2944022,40.265625 C97.8493435,40.265625 97.4837595,39.90625 97.4837595,39.46875 C97.4837595,39.03125 97.8493435,38.671875 98.2944022,38.671875 L109.023497,38.671875 C109.468556,38.671875 109.83414,39.03125 109.83414,39.46875 C109.818245,39.90625 109.468556,40.265625 109.023497,40.265625 L109.023497,40.265625 Z" id="Shape"></path>
                    <path d="M133.295093,40.265625 L122.438839,40.265625 C121.99378,40.265625 121.628196,39.90625 121.628196,39.46875 C121.628196,39.03125 121.99378,38.671875 122.438839,38.671875 L133.295093,38.671875 C133.740152,38.671875 134.105736,39.03125 134.105736,39.46875 C134.105736,39.90625 133.740152,40.265625 133.295093,40.265625 L133.295093,40.265625 Z" id="Shape"></path>
                    <path d="M109.023497,33.46875 L102.284036,33.46875 C101.838977,33.46875 101.473393,33.109375 101.473393,32.671875 C101.473393,32.234375 101.838977,31.875 102.284036,31.875 L109.023497,31.875 C109.468556,31.875 109.83414,32.234375 109.83414,32.671875 C109.83414,33.109375 109.468556,33.46875 109.023497,33.46875 L109.023497,33.46875 Z" id="Shape"></path>
                    <path d="M129.30546,33.46875 L122.804423,33.46875 C122.359364,33.46875 121.99378,33.109375 121.99378,32.671875 C121.99378,32.234375 122.359364,31.875 122.804423,31.875 L129.30546,31.875 C129.750518,31.875 130.116102,32.234375 130.116102,32.671875 C130.116102,33.109375 129.750518,33.46875 129.30546,33.46875 L129.30546,33.46875 Z" id="Shape"></path>
                    <path d="M109.023497,46.515625 L102.284036,46.515625 C101.838977,46.515625 101.473393,46.15625 101.473393,45.71875 C101.473393,45.28125 101.838977,44.921875 102.284036,44.921875 L109.023497,44.921875 C109.468556,44.921875 109.83414,45.28125 109.83414,45.71875 C109.818245,46.15625 109.468556,46.515625 109.023497,46.515625 L109.023497,46.515625 Z" id="Shape"></path>
                    <path d="M129.30546,46.515625 L122.438839,46.515625 C121.99378,46.515625 121.628196,46.15625 121.628196,45.71875 C121.628196,45.28125 121.99378,44.921875 122.438839,44.921875 L129.30546,44.921875 C129.750518,44.921875 130.116102,45.28125 130.116102,45.71875 C130.116102,46.15625 129.750518,46.515625 129.30546,46.515625 L129.30546,46.515625 Z" id="Shape"></path>
                    <path d="M115.953697,42.65625 C114.96821,42.65625 114.157567,41.859375 114.157567,40.890625 C114.157567,39.921875 114.96821,39.125 115.953697,39.125 C116.939185,39.125 117.749827,39.921875 117.749827,40.890625 C117.749827,41.859375 116.939185,42.65625 115.953697,42.65625 L115.953697,42.65625 Z M115.953697,40.71875 C115.858328,40.71875 115.778853,40.796875 115.778853,40.890625 C115.778853,40.984375 115.858328,41.0625 115.953697,41.0625 C116.049067,41.0625 116.128542,40.984375 116.128542,40.890625 C116.128542,40.796875 116.049067,40.71875 115.953697,40.71875 L115.953697,40.71875 Z" id="Shape"></path>
                    <path d="M92.1589496,4.46875 C92.1589496,4.203125 92.3814789,3.984375 92.6516932,3.984375 L92.7470629,3.984375 C92.9854872,3.984375 93.1285418,4.09375 93.2557015,4.265625 L95.1630961,6.734375 L95.1630961,4.4375 C95.1630961,4.171875 95.3856254,3.953125 95.6558397,3.953125 C95.9260539,3.953125 96.1485833,4.171875 96.1485833,4.4375 L96.1485833,7.96875 C96.1485833,8.234375 95.9260539,8.453125 95.6558397,8.453125 L95.6240498,8.453125 C95.3856254,8.453125 95.2425708,8.34375 95.1154112,8.171875 L93.1285418,5.609375 L93.1285418,7.984375 C93.1285418,8.25 92.9060124,8.46875 92.6357982,8.46875 C92.365584,8.46875 92.1430546,8.25 92.1430546,7.984375 L92.1430546,4.46875 L92.1589496,4.46875 Z M97.0387008,6.234375 C97.0387008,4.96875 98.0559779,3.9375 99.438839,3.9375 C100.837595,3.9375 101.823082,4.953125 101.823082,6.21875 L101.823082,6.234375 C101.823082,7.5 100.805805,8.53125 99.422944,8.53125 C98.0400829,8.5 97.0387008,7.484375 97.0387008,6.234375 L97.0387008,6.234375 Z M100.805805,6.234375 C100.805805,5.46875 100.233587,4.828125 99.438839,4.828125 C98.6440912,4.828125 98.0877678,5.453125 98.0877678,6.203125 L98.0877678,6.21875 C98.0877678,6.984375 98.6599862,7.609375 99.4547339,7.609375 C100.249482,7.609375 100.805805,6.984375 100.805805,6.234375 L100.805805,6.234375 Z M102.7132,4.484375 C102.7132,4.21875 102.935729,4 103.205943,4 L104.461645,4 C105.876296,4 106.861783,4.953125 106.861783,6.203125 L106.861783,6.21875 C106.861783,7.46875 105.876296,8.4375 104.461645,8.4375 L103.205943,8.4375 C102.935729,8.4375 102.7132,8.21875 102.7132,7.953125 L102.7132,4.484375 L102.7132,4.484375 Z M104.47754,7.546875 C105.288182,7.546875 105.828611,7.015625 105.828611,6.21875 L105.828611,6.203125 C105.828611,5.421875 105.288182,4.859375 104.47754,4.859375 L103.714582,4.859375 L103.714582,7.53125 L104.47754,7.53125 L104.47754,7.546875 Z M107.7519,7.9375 L107.7519,4.484375 C107.7519,4.21875 107.97443,4 108.244644,4 L110.740152,4 C110.978576,4 111.185211,4.203125 111.185211,4.4375 C111.185211,4.671875 110.978576,4.875 110.740152,4.875 L108.737388,4.875 L108.737388,5.78125 L110.469938,5.78125 C110.708362,5.78125 110.914997,5.984375 110.914997,6.21875 C110.914997,6.453125 110.708362,6.65625 110.469938,6.65625 L108.753283,6.65625 L108.753283,7.59375 L110.787837,7.59375 C111.026261,7.59375 111.232896,7.796875 111.232896,8.03125 C111.232896,8.265625 111.026261,8.46875 110.787837,8.46875 L108.260539,8.46875 C107.97443,8.4375 107.7519,8.21875 107.7519,7.9375 L107.7519,7.9375 Z M111.979959,7.96875 C111.868694,7.890625 111.789219,7.75 111.789219,7.609375 C111.789219,7.359375 111.995853,7.15625 112.250173,7.15625 C112.377332,7.15625 112.472702,7.203125 112.536282,7.25 C112.870076,7.5 113.251555,7.65625 113.696614,7.65625 C114.109883,7.65625 114.348307,7.5 114.348307,7.234375 L114.348307,7.21875 C114.348307,6.96875 114.189357,6.84375 113.442294,6.65625 C112.536282,6.421875 111.948169,6.1875 111.948169,5.296875 L111.948169,5.28125 C111.948169,4.484375 112.599862,3.9375 113.521769,3.9375 C114.062198,3.9375 114.539046,4.078125 114.952315,4.328125 C115.06358,4.390625 115.174845,4.53125 115.174845,4.71875 C115.174845,4.96875 114.96821,5.171875 114.713891,5.171875 C114.618521,5.171875 114.539046,5.140625 114.459572,5.109375 C114.125777,4.921875 113.823773,4.8125 113.505874,4.8125 C113.124395,4.8125 112.933656,4.984375 112.933656,5.203125 L112.933656,5.21875 C112.933656,5.515625 113.124395,5.609375 113.903248,5.796875 C114.825155,6.03125 115.333794,6.359375 115.333794,7.125 L115.333794,7.140625 C115.333794,8.015625 114.650311,8.515625 113.680719,8.515625 C113.092605,8.5 112.488597,8.3125 111.979959,7.96875 L111.979959,7.96875 Z M116.001382,6.234375 C116.001382,4.96875 116.970974,3.9375 118.353836,3.9375 C119.037319,3.9375 119.482377,4.109375 119.863856,4.390625 C119.959226,4.46875 120.054596,4.609375 120.054596,4.78125 C120.054596,5.046875 119.832066,5.25 119.561852,5.25 C119.418798,5.25 119.339323,5.203125 119.259848,5.15625 C118.989634,4.953125 118.68763,4.84375 118.337941,4.84375 C117.574983,4.84375 117.034554,5.46875 117.034554,6.21875 L117.034554,6.234375 C117.034554,7 117.574983,7.625 118.337941,7.625 C118.751209,7.625 119.037319,7.5 119.323428,7.28125 C119.402903,7.21875 119.498272,7.171875 119.625432,7.171875 C119.879751,7.171875 120.086386,7.375 120.086386,7.625 C120.086386,7.78125 120.006911,7.890625 119.911541,7.96875 C119.498272,8.3125 119.021424,8.53125 118.306151,8.53125 C116.986869,8.5 116.001382,7.5 116.001382,6.234375 L116.001382,6.234375 Z M120.960608,4.453125 C120.960608,4.1875 121.183138,3.96875 121.453352,3.96875 C121.723566,3.96875 121.946095,4.1875 121.946095,4.453125 L121.946095,5.75 L123.774015,5.75 L123.774015,4.453125 C123.774015,4.1875 123.996545,3.96875 124.266759,3.96875 C124.536973,3.96875 124.759502,4.1875 124.759502,4.453125 L124.759502,7.984375 C124.759502,8.25 124.536973,8.46875 124.266759,8.46875 C123.996545,8.46875 123.774015,8.25 123.774015,7.984375 L123.774015,6.65625 L121.946095,6.65625 L121.946095,7.984375 C121.946095,8.25 121.723566,8.46875 121.453352,8.46875 C121.183138,8.46875 120.960608,8.25 120.960608,7.984375 L120.960608,4.453125 L120.960608,4.453125 Z M125.64962,6.234375 C125.64962,4.96875 126.666897,3.9375 128.049758,3.9375 C129.448514,3.9375 130.434001,4.953125 130.434001,6.21875 L130.434001,6.234375 C130.434001,7.5 129.416724,8.53125 128.033863,8.53125 C126.651002,8.5 125.64962,7.484375 125.64962,6.234375 L125.64962,6.234375 Z M129.416724,6.234375 C129.416724,5.46875 128.844506,4.828125 128.049758,4.828125 C127.25501,4.828125 126.698687,5.453125 126.698687,6.203125 L126.698687,6.21875 C126.698687,6.984375 127.270905,7.609375 128.065653,7.609375 C128.860401,7.609375 129.416724,6.984375 129.416724,6.234375 L129.416724,6.234375 Z M131.133379,6.234375 C131.133379,4.96875 132.150657,3.9375 133.533518,3.9375 C134.932274,3.9375 135.917761,4.953125 135.917761,6.21875 L135.917761,6.234375 C135.917761,7.5 134.900484,8.53125 133.517623,8.53125 C132.134762,8.5 131.133379,7.484375 131.133379,6.234375 L131.133379,6.234375 Z M134.884589,6.234375 C134.884589,5.46875 134.31237,4.828125 133.517623,4.828125 C132.722875,4.828125 132.166551,5.453125 132.166551,6.203125 L132.166551,6.21875 C132.166551,6.984375 132.73877,7.609375 133.533518,7.609375 C134.328265,7.609375 134.884589,6.984375 134.884589,6.234375 L134.884589,6.234375 Z M136.807878,4.453125 C136.807878,4.1875 137.030408,3.96875 137.300622,3.96875 C137.570836,3.96875 137.793366,4.1875 137.793366,4.453125 L137.793366,7.546875 L139.621285,7.546875 C139.875605,7.546875 140.066344,7.75 140.066344,7.984375 C140.066344,8.21875 139.85971,8.421875 139.621285,8.421875 L137.284727,8.421875 C137.014513,8.421875 136.791983,8.203125 136.791983,7.9375 L136.791983,4.453125 L136.807878,4.453125 Z" id="Shape"></path>
                    <path d="M147.505183,16.5625 L83.2418798,16.5625 C82.796821,16.5625 82.431237,16.203125 82.431237,15.765625 C82.431237,15.328125 82.796821,14.96875 83.2418798,14.96875 L147.505183,14.96875 C147.950242,14.96875 148.315826,15.328125 148.315826,15.765625 C148.315826,16.203125 147.950242,16.5625 147.505183,16.5625 L147.505183,16.5625 Z" id="Shape"></path>
                    <path d="M36.431237,20.921875 L29.0877678,20.921875 C28.6427091,20.921875 28.2771251,20.5625 28.2771251,20.125 C28.2771251,19.6875 28.6427091,19.328125 29.0877678,19.328125 L36.431237,19.328125 C36.8762958,19.328125 37.2418798,19.6875 37.2418798,20.125 C37.2418798,20.5625 36.8762958,20.921875 36.431237,20.921875 L36.431237,20.921875 Z" id="Shape"></path>
                    <path d="M200.848652,20.921875 L193.505183,20.921875 C193.060124,20.921875 192.69454,20.5625 192.69454,20.125 C192.69454,19.6875 193.060124,19.328125 193.505183,19.328125 L200.848652,19.328125 C201.293711,19.328125 201.659295,19.6875 201.659295,20.125 C201.659295,20.5625 201.293711,20.921875 200.848652,20.921875 L200.848652,20.921875 Z" id="Shape"></path>
                </g>
            </g>
            <g id="schoolhouse-copy-3" sketch:type="MSLayerGroup" transform="translate(336.000000, 262.000000)">
                <g id="Group" sketch:type="MSShapeGroup">
                    <path d="M229.125777,72.65625 L197.176918,72.65625 C196.731859,72.65625 196.366275,72.296875 196.366275,71.859375 L196.366275,23.296875 C196.366275,22.859375 196.731859,22.5 197.176918,22.5 L229.125777,22.5 C229.570836,22.5 229.93642,22.859375 229.93642,23.296875 L229.93642,71.875 C229.920525,72.3125 229.570836,72.65625 229.125777,72.65625 L229.125777,72.65625 Z M197.971666,71.078125 L228.315135,71.078125 L228.315135,24.09375 L197.971666,24.09375 L197.971666,71.078125 L197.971666,71.078125 Z" id="Shape"></path>
                    <path d="M225.438148,24.09375 C224.993089,24.09375 224.627505,23.734375 224.627505,23.296875 L224.627505,17.75 L201.67519,17.75 L201.67519,23.296875 C201.67519,23.734375 201.309606,24.09375 200.864547,24.09375 C200.419489,24.09375 200.053905,23.734375 200.053905,23.296875 L200.053905,16.96875 C200.053905,16.53125 200.419489,16.171875 200.864547,16.171875 L225.438148,16.171875 C225.883207,16.171875 226.248791,16.53125 226.248791,16.96875 L226.248791,23.296875 C226.232896,23.734375 225.883207,24.09375 225.438148,24.09375 L225.438148,24.09375 Z" id="Shape"></path>
                    <path d="M217.077402,42.25 L208.462336,42.25 C208.176227,42.25 207.906012,42.09375 207.762958,41.859375 L203.455425,34.53125 C203.31237,34.28125 203.31237,33.984375 203.455425,33.734375 L207.762958,26.40625 C207.906012,26.15625 208.176227,26.015625 208.462336,26.015625 L217.077402,26.015625 C217.363511,26.015625 217.633725,26.171875 217.77678,26.40625 L222.084312,33.734375 C222.227367,33.984375 222.227367,34.28125 222.084312,34.53125 L217.77678,41.859375 C217.633725,42.09375 217.363511,42.25 217.077402,42.25 L217.077402,42.25 Z M208.939185,40.671875 L216.616448,40.671875 L220.463027,34.125 L216.616448,27.578125 L208.939185,27.578125 L205.092605,34.125 L208.939185,40.671875 L208.939185,40.671875 Z" id="Shape"></path>
                    <path d="M212.769869,42.25 C212.32481,42.25 211.959226,41.890625 211.959226,41.453125 L211.959226,26.78125 C211.959226,26.34375 212.32481,25.984375 212.769869,25.984375 C213.214927,25.984375 213.580511,26.34375 213.580511,26.78125 L213.580511,41.453125 C213.580511,41.890625 213.214927,42.25 212.769869,42.25 L212.769869,42.25 Z" id="Shape"></path>
                    <path d="M221.384934,34.921875 L204.154803,34.921875 C203.709744,34.921875 203.34416,34.5625 203.34416,34.125 C203.34416,33.6875 203.709744,33.328125 204.154803,33.328125 L221.384934,33.328125 C221.829993,33.328125 222.195577,33.6875 222.195577,34.125 C222.195577,34.5625 221.829993,34.921875 221.384934,34.921875 L221.384934,34.921875 Z" id="Shape"></path>
                    <path d="M219.429855,31.578125 L206.125777,31.578125 C205.680719,31.578125 205.315135,31.21875 205.315135,30.78125 C205.315135,30.34375 205.680719,29.984375 206.125777,29.984375 L219.429855,29.984375 C219.874914,29.984375 220.240498,30.34375 220.240498,30.78125 C220.224603,31.21875 219.874914,31.578125 219.429855,31.578125 L219.429855,31.578125 Z" id="Shape"></path>
                    <path d="M219.429855,38 L206.125777,38 C205.680719,38 205.315135,37.640625 205.315135,37.203125 C205.315135,36.765625 205.680719,36.40625 206.125777,36.40625 L219.429855,36.40625 C219.874914,36.40625 220.240498,36.765625 220.240498,37.203125 C220.240498,37.640625 219.874914,38 219.429855,38 L219.429855,38 Z" id="Shape"></path>
                    <path d="M225.469938,63.328125 L201.214236,63.328125 C200.769178,63.328125 200.403594,62.96875 200.403594,62.53125 L200.403594,51.4375 C200.403594,51 200.769178,50.640625 201.214236,50.640625 L225.469938,50.640625 C225.914997,50.640625 226.280581,51 226.280581,51.4375 L226.280581,62.53125 C226.264686,62.984375 225.914997,63.328125 225.469938,63.328125 L225.469938,63.328125 Z M202.008984,61.75 L224.659295,61.75 L224.659295,52.25 L202.008984,52.25 L202.008984,61.75 L202.008984,61.75 Z" id="Shape"></path>
                    <path d="M225.469938,57.796875 L201.214236,57.796875 C200.769178,57.796875 200.403594,57.4375 200.403594,57 C200.403594,56.5625 200.769178,56.203125 201.214236,56.203125 L225.469938,56.203125 C225.914997,56.203125 226.280581,56.5625 226.280581,57 C226.264686,57.4375 225.914997,57.796875 225.469938,57.796875 L225.469938,57.796875 Z" id="Shape"></path>
                    <path d="M219.191431,63.328125 C218.746372,63.328125 218.380788,62.96875 218.380788,62.53125 L218.380788,51.4375 C218.380788,51 218.746372,50.640625 219.191431,50.640625 C219.636489,50.640625 220.002073,51 220.002073,51.4375 L220.002073,62.53125 C220.002073,62.984375 219.636489,63.328125 219.191431,63.328125 L219.191431,63.328125 Z" id="Shape"></path>
                    <path d="M207.476849,63.328125 C207.03179,63.328125 206.666206,62.96875 206.666206,62.53125 L206.666206,51.4375 C206.666206,51 207.03179,50.640625 207.476849,50.640625 C207.921907,50.640625 208.287491,51 208.287491,51.4375 L208.287491,62.53125 C208.271596,62.984375 207.921907,63.328125 207.476849,63.328125 L207.476849,63.328125 Z" id="Shape"></path>
                    <path d="M213.342087,63.328125 C212.897028,63.328125 212.531444,62.96875 212.531444,62.53125 L212.531444,51.4375 C212.531444,51 212.897028,50.640625 213.342087,50.640625 C213.787146,50.640625 214.15273,51 214.15273,51.4375 L214.15273,62.53125 C214.136835,62.984375 213.787146,63.328125 213.342087,63.328125 L213.342087,63.328125 Z" id="Shape"></path>
                    <path d="M197.176918,72.65625 L165.228058,72.65625 C164.782999,72.65625 164.417415,72.296875 164.417415,71.859375 L164.417415,23.296875 C164.417415,22.859375 164.782999,22.5 165.228058,22.5 L197.176918,22.5 C197.621977,22.5 197.98756,22.859375 197.98756,23.296875 L197.98756,71.875 C197.971666,72.3125 197.621977,72.65625 197.176918,72.65625 L197.176918,72.65625 Z M166.022806,71.078125 L196.366275,71.078125 L196.366275,24.09375 L166.022806,24.09375 L166.022806,71.078125 L166.022806,71.078125 Z" id="Shape"></path>
                    <path d="M193.473393,24.09375 C193.028334,24.09375 192.662751,23.734375 192.662751,23.296875 L192.662751,17.75 L169.710435,17.75 L169.710435,23.296875 C169.710435,23.734375 169.344851,24.09375 168.899793,24.09375 C168.454734,24.09375 168.08915,23.734375 168.08915,23.296875 L168.08915,16.96875 C168.08915,16.53125 168.454734,16.171875 168.899793,16.171875 L193.473393,16.171875 C193.918452,16.171875 194.284036,16.53125 194.284036,16.96875 L194.284036,23.296875 C194.284036,23.734375 193.918452,24.09375 193.473393,24.09375 L193.473393,24.09375 Z" id="Shape"></path>
                    <path d="M185.128542,42.25 L176.513476,42.25 C176.227367,42.25 175.957153,42.09375 175.814098,41.859375 L171.506565,34.53125 C171.363511,34.28125 171.363511,33.984375 171.506565,33.734375 L175.814098,26.40625 C175.957153,26.15625 176.227367,26.015625 176.513476,26.015625 L185.128542,26.015625 C185.414651,26.015625 185.684865,26.171875 185.82792,26.40625 L190.135453,33.734375 C190.278507,33.984375 190.278507,34.28125 190.135453,34.53125 L185.82792,41.859375 C185.684865,42.09375 185.414651,42.25 185.128542,42.25 L185.128542,42.25 Z M176.97443,40.671875 L184.651693,40.671875 L188.498272,34.125 L184.651693,27.578125 L176.97443,27.578125 L173.127851,34.125 L176.97443,40.671875 L176.97443,40.671875 Z" id="Shape"></path>
                    <path d="M180.821009,42.25 C180.37595,42.25 180.010366,41.890625 180.010366,41.453125 L180.010366,26.78125 C180.010366,26.34375 180.37595,25.984375 180.821009,25.984375 C181.266068,25.984375 181.631652,26.34375 181.631652,26.78125 L181.631652,41.453125 C181.631652,41.890625 181.266068,42.25 180.821009,42.25 L180.821009,42.25 Z" id="Shape"></path>
                    <path d="M189.436075,34.921875 L172.205943,34.921875 C171.760885,34.921875 171.395301,34.5625 171.395301,34.125 C171.395301,33.6875 171.760885,33.328125 172.205943,33.328125 L189.436075,33.328125 C189.881133,33.328125 190.246717,33.6875 190.246717,34.125 C190.246717,34.5625 189.881133,34.921875 189.436075,34.921875 L189.436075,34.921875 Z" id="Shape"></path>
                    <path d="M187.480995,31.578125 L174.176918,31.578125 C173.731859,31.578125 173.366275,31.21875 173.366275,30.78125 C173.366275,30.34375 173.731859,29.984375 174.176918,29.984375 L187.480995,29.984375 C187.926054,29.984375 188.291638,30.34375 188.291638,30.78125 C188.275743,31.21875 187.926054,31.578125 187.480995,31.578125 L187.480995,31.578125 Z" id="Shape"></path>
                    <path d="M187.480995,38 L174.176918,38 C173.731859,38 173.366275,37.640625 173.366275,37.203125 C173.366275,36.765625 173.731859,36.40625 174.176918,36.40625 L187.480995,36.40625 C187.926054,36.40625 188.291638,36.765625 188.291638,37.203125 C188.291638,37.640625 187.926054,38 187.480995,38 L187.480995,38 Z" id="Shape"></path>
                    <path d="M193.505183,63.328125 L169.249482,63.328125 C168.804423,63.328125 168.438839,62.96875 168.438839,62.53125 L168.438839,51.4375 C168.438839,51 168.804423,50.640625 169.249482,50.640625 L193.505183,50.640625 C193.950242,50.640625 194.315826,51 194.315826,51.4375 L194.315826,62.53125 C194.315826,62.984375 193.950242,63.328125 193.505183,63.328125 L193.505183,63.328125 Z M170.060124,61.75 L192.710435,61.75 L192.710435,52.25 L170.060124,52.25 L170.060124,61.75 L170.060124,61.75 Z" id="Shape"></path>
                    <path d="M193.505183,57.796875 L169.249482,57.796875 C168.804423,57.796875 168.438839,57.4375 168.438839,57 C168.438839,56.5625 168.804423,56.203125 169.249482,56.203125 L193.505183,56.203125 C193.950242,56.203125 194.315826,56.5625 194.315826,57 C194.315826,57.4375 193.950242,57.796875 193.505183,57.796875 L193.505183,57.796875 Z" id="Shape"></path>
                    <path d="M187.242571,63.328125 C186.797512,63.328125 186.431928,62.96875 186.431928,62.53125 L186.431928,51.4375 C186.431928,51 186.797512,50.640625 187.242571,50.640625 C187.68763,50.640625 188.053214,51 188.053214,51.4375 L188.053214,62.53125 C188.053214,62.984375 187.68763,63.328125 187.242571,63.328125 L187.242571,63.328125 Z" id="Shape"></path>
                    <path d="M175.527989,63.328125 C175.08293,63.328125 174.717346,62.96875 174.717346,62.53125 L174.717346,51.4375 C174.717346,51 175.08293,50.640625 175.527989,50.640625 C175.973048,50.640625 176.338632,51 176.338632,51.4375 L176.338632,62.53125 C176.322737,62.984375 175.973048,63.328125 175.527989,63.328125 L175.527989,63.328125 Z" id="Shape"></path>
                    <path d="M181.377332,63.328125 C180.932274,63.328125 180.56669,62.96875 180.56669,62.53125 L180.56669,51.4375 C180.56669,51 180.932274,50.640625 181.377332,50.640625 C181.822391,50.640625 182.187975,51 182.187975,51.4375 L182.187975,62.53125 C182.187975,62.984375 181.822391,63.328125 181.377332,63.328125 L181.377332,63.328125 Z" id="Shape"></path>
                    <path d="M158.059433,72.65625 C157.614375,72.65625 157.248791,72.296875 157.248791,71.859375 L157.248791,1.65625 L72.6876296,1.65625 L72.6876296,71.875 C72.6876296,72.3125 72.3220456,72.671875 71.8769869,72.671875 C71.4319281,72.671875 71.0663442,72.3125 71.0663442,71.875 L71.0663442,0.859375 C71.0663442,0.421875 71.4319281,0.0625 71.8769869,0.0625 L158.075328,0.0625 C158.520387,0.0625 158.885971,0.421875 158.885971,0.859375 L158.885971,71.875 C158.870076,72.3125 158.504492,72.65625 158.059433,72.65625 L158.059433,72.65625 Z" id="Shape"></path>
                    <path d="M152.702833,20.921875 L78.5846579,20.921875 C78.1395992,20.921875 77.7740152,20.5625 77.7740152,20.125 L77.7740152,11.421875 C77.7740152,10.984375 78.1395992,10.625 78.5846579,10.625 L152.686938,10.625 C153.131997,10.625 153.497581,10.984375 153.497581,11.421875 L153.497581,20.125 C153.497581,20.5625 153.147892,20.921875 152.702833,20.921875 L152.702833,20.921875 Z M79.3953006,19.34375 L151.892191,19.34375 L151.892191,12.21875 L79.3953006,12.21875 L79.3953006,19.34375 L79.3953006,19.34375 Z" id="Shape"></path>
                    <path d="M147.600553,55.375 L83.6869385,55.375 C83.2418798,55.375 82.8762958,55.015625 82.8762958,54.578125 L82.8762958,24.09375 L81.2709053,24.09375 C80.8258466,24.09375 80.4602626,23.734375 80.4602626,23.296875 L80.4602626,20.125 C80.4602626,19.6875 80.8258466,19.328125 81.2709053,19.328125 C81.7159641,19.328125 82.081548,19.6875 82.081548,20.125 L82.081548,22.5 L83.6869385,22.5 C84.1319972,22.5 84.4975812,22.859375 84.4975812,23.296875 L84.4975812,53.78125 L146.78991,53.78125 L146.78991,23.296875 C146.78991,22.859375 147.155494,22.5 147.600553,22.5 L149.205943,22.5 L149.205943,20.125 C149.205943,19.6875 149.571527,19.328125 150.016586,19.328125 C150.461645,19.328125 150.827229,19.6875 150.827229,20.125 L150.827229,23.296875 C150.827229,23.734375 150.461645,24.09375 150.016586,24.09375 L148.411196,24.09375 L148.411196,54.578125 C148.395301,55.015625 148.045612,55.375 147.600553,55.375 L147.600553,55.375 Z" id="Shape"></path>
                    <path d="M137.666206,24.09375 C137.221147,24.09375 136.855563,23.734375 136.855563,23.296875 L136.855563,20.125 C136.855563,19.6875 137.221147,19.328125 137.666206,19.328125 C138.111265,19.328125 138.476849,19.6875 138.476849,20.125 L138.476849,23.296875 C138.460954,23.734375 138.111265,24.09375 137.666206,24.09375 L137.666206,24.09375 Z" id="Shape"></path>
                    <path d="M140.082239,24.09375 L137.666206,24.09375 C137.221147,24.09375 136.855563,23.734375 136.855563,23.296875 C136.855563,22.859375 137.221147,22.5 137.666206,22.5 L140.082239,22.5 C140.527298,22.5 140.892882,22.859375 140.892882,23.296875 C140.876987,23.734375 140.527298,24.09375 140.082239,24.09375 L140.082239,24.09375 Z" id="Shape"></path>
                    <path d="M140.082239,55.375 C139.63718,55.375 139.271596,55.015625 139.271596,54.578125 L139.271596,23.296875 C139.271596,22.859375 139.63718,22.5 140.082239,22.5 C140.527298,22.5 140.892882,22.859375 140.892882,23.296875 L140.892882,54.578125 C140.876987,55.015625 140.527298,55.375 140.082239,55.375 L140.082239,55.375 Z" id="Shape"></path>
                    <path d="M93.8914997,24.09375 C93.4464409,24.09375 93.0808569,23.734375 93.0808569,23.296875 L93.0808569,20.125 C93.0808569,19.6875 93.4464409,19.328125 93.8914997,19.328125 C94.3365584,19.328125 94.7021424,19.6875 94.7021424,20.125 L94.7021424,23.296875 C94.7021424,23.734375 94.3365584,24.09375 93.8914997,24.09375 L93.8914997,24.09375 Z" id="Shape"></path>
                    <path d="M93.8914997,24.09375 L91.4754665,24.09375 C91.0304077,24.09375 90.6648238,23.734375 90.6648238,23.296875 C90.6648238,22.859375 91.0304077,22.5 91.4754665,22.5 L93.8914997,22.5 C94.3365584,22.5 94.7021424,22.859375 94.7021424,23.296875 C94.7021424,23.734375 94.3365584,24.09375 93.8914997,24.09375 L93.8914997,24.09375 Z" id="Shape"></path>
                    <path d="M91.4754665,55.375 C91.0304077,55.375 90.6648238,55.015625 90.6648238,54.578125 L90.6648238,23.296875 C90.6648238,22.859375 91.0304077,22.5 91.4754665,22.5 C91.9205252,22.5 92.2861092,22.859375 92.2861092,23.296875 L92.2861092,54.578125 C92.2861092,55.015625 91.9205252,55.375 91.4754665,55.375 L91.4754665,55.375 Z" id="Shape"></path>
                    <path d="M150.016586,60.25 L81.2709053,60.25 C80.8258466,60.25 80.4602626,59.890625 80.4602626,59.453125 L80.4602626,54.5625 C80.4602626,54.125 80.8258466,53.765625 81.2709053,53.765625 L150.016586,53.765625 C150.461645,53.765625 150.827229,54.125 150.827229,54.5625 L150.827229,59.453125 C150.811334,59.90625 150.461645,60.25 150.016586,60.25 L150.016586,60.25 Z M82.081548,58.671875 L149.205943,58.671875 L149.205943,55.375 L82.081548,55.375 L82.081548,58.671875 L82.081548,58.671875 Z" id="Shape"></path>
                    <path d="M152.702833,65.140625 L78.5846579,65.140625 C78.1395992,65.140625 77.7740152,64.78125 77.7740152,64.34375 L77.7740152,59.453125 C77.7740152,59.015625 78.1395992,58.65625 78.5846579,58.65625 L152.686938,58.65625 C153.131997,58.65625 153.497581,59.015625 153.497581,59.453125 L153.497581,64.34375 C153.497581,64.78125 153.147892,65.140625 152.702833,65.140625 L152.702833,65.140625 Z M79.3953006,63.546875 L151.892191,63.546875 L151.892191,60.25 L79.3953006,60.25 L79.3953006,63.546875 L79.3953006,63.546875 Z" id="Shape"></path>
                    <path d="M155.389081,70.015625 L74.6427091,70.015625 C74.1976503,70.015625 73.8320663,69.65625 73.8320663,69.21875 L73.8320663,64.328125 C73.8320663,63.890625 74.1976503,63.53125 74.6427091,63.53125 L155.373186,63.53125 C155.818245,63.53125 156.183829,63.890625 156.183829,64.328125 L156.183829,69.21875 C156.183829,69.671875 155.83414,70.015625 155.389081,70.015625 L155.389081,70.015625 Z M75.4533518,68.4375 L154.578438,68.4375 L154.578438,65.140625 L75.4533518,65.140625 L75.4533518,68.4375 L75.4533518,68.4375 Z" id="Shape"></path>
                    <path d="M158.059433,74.90625 L71.8769869,74.90625 C71.4319281,74.90625 71.0663442,74.546875 71.0663442,74.109375 L71.0663442,69.21875 C71.0663442,68.78125 71.4319281,68.421875 71.8769869,68.421875 L158.075328,68.421875 C158.520387,68.421875 158.885971,68.78125 158.885971,69.21875 L158.885971,74.109375 C158.870076,74.546875 158.504492,74.90625 158.059433,74.90625 L158.059433,74.90625 Z M72.6876296,73.3125 L157.264686,73.3125 L157.264686,70.015625 L72.6876296,70.015625 L72.6876296,73.3125 L72.6876296,73.3125 Z" id="Shape"></path>
                    <path d="M152.702833,65.140625 C152.257775,65.140625 151.892191,64.78125 151.892191,64.34375 L151.892191,59.453125 C151.892191,59.015625 152.257775,58.65625 152.702833,58.65625 C153.147892,58.65625 153.513476,59.015625 153.513476,59.453125 L153.513476,64.34375 C153.497581,64.78125 153.147892,65.140625 152.702833,65.140625 L152.702833,65.140625 Z" id="Shape"></path>
                    <path d="M165.212163,72.65625 L158.059433,72.65625 C157.614375,72.65625 157.248791,72.296875 157.248791,71.859375 L157.248791,20.140625 C157.248791,19.703125 157.614375,19.34375 158.059433,19.34375 L168.899793,19.34375 C169.344851,19.34375 169.710435,19.703125 169.710435,20.140625 L169.710435,23.3125 C169.710435,23.75 169.344851,24.109375 168.899793,24.109375 C168.454734,24.109375 168.08915,23.75 168.08915,23.3125 L168.08915,20.9375 L158.854181,20.9375 L158.854181,71.09375 L165.196268,71.09375 C165.641327,71.09375 166.006911,71.453125 166.006911,71.890625 C166.022806,72.3125 165.657222,72.65625 165.212163,72.65625 L165.212163,72.65625 Z" id="Shape"></path>
                    <path d="M32.7753974,72.65625 L0.826537664,72.65625 C0.381478922,72.65625 0.0158949551,72.296875 0.0158949551,71.859375 L0.0158949551,23.296875 C0.0158949551,22.859375 0.381478922,22.5 0.826537664,22.5 L32.7753974,22.5 C33.2204561,22.5 33.5860401,22.859375 33.5860401,23.296875 L33.5860401,71.875 C33.5860401,72.3125 33.2204561,72.65625 32.7753974,72.65625 L32.7753974,72.65625 Z M1.62128542,71.078125 L31.9647547,71.078125 L31.9647547,24.09375 L1.62128542,24.09375 L1.62128542,71.078125 L1.62128542,71.078125 Z" id="Shape"></path>
                    <path d="M29.0877678,24.09375 C28.6427091,24.09375 28.2771251,23.734375 28.2771251,23.296875 L28.2771251,17.75 L5.32480995,17.75 L5.32480995,23.296875 C5.32480995,23.734375 4.95922598,24.09375 4.51416724,24.09375 C4.0691085,24.09375 3.70352453,23.734375 3.70352453,23.296875 L3.70352453,16.96875 C3.70352453,16.53125 4.0691085,16.171875 4.51416724,16.171875 L29.0877678,16.171875 C29.5328265,16.171875 29.8984105,16.53125 29.8984105,16.96875 L29.8984105,23.296875 C29.8825155,23.734375 29.5328265,24.09375 29.0877678,24.09375 L29.0877678,24.09375 Z" id="Shape"></path>
                    <path d="M21.4740843,42.25 L12.8590187,42.25 C12.5729095,42.25 12.3026952,42.09375 12.1596406,41.859375 L7.85210781,34.53125 C7.70905321,34.28125 7.70905321,33.984375 7.85210781,33.734375 L12.1596406,26.40625 C12.3026952,26.15625 12.5729095,26.015625 12.8590187,26.015625 L21.4740843,26.015625 C21.7601935,26.015625 22.0304077,26.171875 22.1734623,26.40625 L26.4809952,33.734375 C26.6240498,33.984375 26.6240498,34.28125 26.4809952,34.53125 L22.1734623,41.859375 C22.0304077,42.09375 21.7601935,42.25 21.4740843,42.25 L21.4740843,42.25 Z M13.3199724,40.671875 L20.9972357,40.671875 L24.8438148,34.125 L20.9972357,27.578125 L13.3199724,27.578125 L9.47339323,34.125 L13.3199724,40.671875 L13.3199724,40.671875 Z" id="Shape"></path>
                    <path d="M17.1665515,42.25 C16.7214927,42.25 16.3559088,41.890625 16.3559088,41.453125 L16.3559088,26.78125 C16.3559088,26.34375 16.7214927,25.984375 17.1665515,25.984375 C17.6116102,25.984375 17.9771942,26.34375 17.9771942,26.78125 L17.9771942,41.453125 C17.9771942,41.890625 17.6116102,42.25 17.1665515,42.25 L17.1665515,42.25 Z" id="Shape"></path>
                    <path d="M25.7816171,34.921875 L8.55148583,34.921875 C8.10642709,34.921875 7.74084312,34.5625 7.74084312,34.125 C7.74084312,33.6875 8.10642709,33.328125 8.55148583,33.328125 L25.7816171,33.328125 C26.2266759,33.328125 26.5922598,33.6875 26.5922598,34.125 C26.5922598,34.5625 26.2266759,34.921875 25.7816171,34.921875 L25.7816171,34.921875 Z" id="Shape"></path>
                    <path d="M23.8265377,31.578125 L10.5224603,31.578125 C10.0774015,31.578125 9.71181755,31.21875 9.71181755,30.78125 C9.71181755,30.34375 10.0774015,29.984375 10.5224603,29.984375 L23.8265377,29.984375 C24.2715964,29.984375 24.6371804,30.34375 24.6371804,30.78125 C24.6212854,31.21875 24.2715964,31.578125 23.8265377,31.578125 L23.8265377,31.578125 Z" id="Shape"></path>
                    <path d="M23.8265377,38 L10.5224603,38 C10.0774015,38 9.71181755,37.640625 9.71181755,37.203125 C9.71181755,36.765625 10.0774015,36.40625 10.5224603,36.40625 L23.8265377,36.40625 C24.2715964,36.40625 24.6371804,36.765625 24.6371804,37.203125 C24.6371804,37.640625 24.2715964,38 23.8265377,38 L23.8265377,38 Z" id="Shape"></path>
                    <path d="M28.7380788,63.328125 L4.48237733,63.328125 C4.03731859,63.328125 3.67173462,62.96875 3.67173462,62.53125 L3.67173462,51.4375 C3.67173462,51 4.03731859,50.640625 4.48237733,50.640625 L28.7380788,50.640625 C29.1831375,50.640625 29.5487215,51 29.5487215,51.4375 L29.5487215,62.53125 C29.5328265,62.984375 29.1831375,63.328125 28.7380788,63.328125 L28.7380788,63.328125 Z M5.27712509,61.75 L27.9274361,61.75 L27.9274361,52.25 L5.27712509,52.25 L5.27712509,61.75 L5.27712509,61.75 Z" id="Shape"></path>
                    <path d="M28.7380788,57.796875 L4.48237733,57.796875 C4.03731859,57.796875 3.67173462,57.4375 3.67173462,57 C3.67173462,56.5625 4.03731859,56.203125 4.48237733,56.203125 L28.7380788,56.203125 C29.1831375,56.203125 29.5487215,56.5625 29.5487215,57 C29.5328265,57.4375 29.1831375,57.796875 28.7380788,57.796875 L28.7380788,57.796875 Z" id="Shape"></path>
                    <path d="M10.7449896,63.328125 C10.2999309,63.328125 9.93434692,62.96875 9.93434692,62.53125 L9.93434692,51.4375 C9.93434692,51 10.2999309,50.640625 10.7449896,50.640625 C11.1900484,50.640625 11.5556323,51 11.5556323,51.4375 L11.5556323,62.53125 C11.5556323,62.984375 11.1900484,63.328125 10.7449896,63.328125 L10.7449896,63.328125 Z" id="Shape"></path>
                    <path d="M22.4754665,63.328125 C22.0304077,63.328125 21.6648238,62.96875 21.6648238,62.53125 L21.6648238,51.4375 C21.6648238,51 22.0304077,50.640625 22.4754665,50.640625 C22.9205252,50.640625 23.2861092,51 23.2861092,51.4375 L23.2861092,62.53125 C23.2702142,62.984375 22.9205252,63.328125 22.4754665,63.328125 L22.4754665,63.328125 Z" id="Shape"></path>
                    <path d="M16.6102281,63.328125 C16.1651693,63.328125 15.7995853,62.96875 15.7995853,62.53125 L15.7995853,51.4375 C15.7995853,51 16.1651693,50.640625 16.6102281,50.640625 C17.0552868,50.640625 17.4208708,51 17.4208708,51.4375 L17.4208708,62.53125 C17.4049758,62.984375 17.0552868,63.328125 16.6102281,63.328125 L16.6102281,63.328125 Z" id="Shape"></path>
                    <path d="M64.7242571,72.65625 L32.7753974,72.65625 C32.3303386,72.65625 31.9647547,72.296875 31.9647547,71.859375 L31.9647547,23.296875 C31.9647547,22.859375 32.3303386,22.5 32.7753974,22.5 L64.7242571,22.5 C65.1693158,22.5 65.5348998,22.859375 65.5348998,23.296875 L65.5348998,71.875 C65.5348998,72.3125 65.1693158,72.65625 64.7242571,72.65625 L64.7242571,72.65625 Z M33.5860401,71.078125 L63.9295093,71.078125 L63.9295093,24.09375 L33.5860401,24.09375 L33.5860401,71.078125 L33.5860401,71.078125 Z" id="Shape"></path>
                    <path d="M61.0366275,24.09375 C60.5915688,24.09375 60.2259848,23.734375 60.2259848,23.296875 L60.2259848,17.75 L37.2736697,17.75 L37.2736697,23.296875 C37.2736697,23.734375 36.9080857,24.09375 36.463027,24.09375 C36.0179682,24.09375 35.6523842,23.734375 35.6523842,23.296875 L35.6523842,16.96875 C35.6523842,16.53125 36.0179682,16.171875 36.463027,16.171875 L61.0366275,16.171875 C61.4816862,16.171875 61.8472702,16.53125 61.8472702,16.96875 L61.8472702,23.296875 C61.8313753,23.734375 61.4816862,24.09375 61.0366275,24.09375 L61.0366275,24.09375 Z" id="Shape"></path>
                    <path d="M53.422944,42.25 L44.8078784,42.25 C44.5217692,42.25 44.2515549,42.09375 44.1085003,41.859375 L39.8009675,34.53125 C39.6579129,34.28125 39.6579129,33.984375 39.8009675,33.734375 L44.1085003,26.40625 C44.2515549,26.15625 44.5217692,26.015625 44.8078784,26.015625 L53.422944,26.015625 C53.7090532,26.015625 53.9792674,26.171875 54.122322,26.40625 L58.4298549,33.734375 C58.5729095,33.984375 58.5729095,34.28125 58.4298549,34.53125 L54.122322,41.859375 C53.9792674,42.09375 53.7090532,42.25 53.422944,42.25 L53.422944,42.25 Z M45.284727,40.671875 L52.9619903,40.671875 L56.8085695,34.125 L52.9619903,27.578125 L45.284727,27.578125 L41.4381479,34.125 L45.284727,40.671875 L45.284727,40.671875 Z" id="Shape"></path>
                    <path d="M49.1154112,42.25 C48.6703525,42.25 48.3047685,41.890625 48.3047685,41.453125 L48.3047685,26.78125 C48.3047685,26.34375 48.6703525,25.984375 49.1154112,25.984375 C49.5604699,25.984375 49.9260539,26.34375 49.9260539,26.78125 L49.9260539,41.453125 C49.9260539,41.890625 49.5604699,42.25 49.1154112,42.25 L49.1154112,42.25 Z" id="Shape"></path>
                    <path d="M57.7304768,34.921875 L40.5003455,34.921875 C40.0552868,34.921875 39.6897028,34.5625 39.6897028,34.125 C39.6897028,33.6875 40.0552868,33.328125 40.5003455,33.328125 L57.7304768,33.328125 C58.1755356,33.328125 58.5411196,33.6875 58.5411196,34.125 C58.5411196,34.5625 58.1755356,34.921875 57.7304768,34.921875 L57.7304768,34.921875 Z" id="Shape"></path>
                    <path d="M55.7753974,31.578125 L42.47132,31.578125 C42.0262612,31.578125 41.6606773,31.21875 41.6606773,30.78125 C41.6606773,30.34375 42.0262612,29.984375 42.47132,29.984375 L55.7753974,29.984375 C56.2204561,29.984375 56.5860401,30.34375 56.5860401,30.78125 C56.5701451,31.21875 56.2204561,31.578125 55.7753974,31.578125 L55.7753974,31.578125 Z" id="Shape"></path>
                    <path d="M55.7753974,38 L42.47132,38 C42.0262612,38 41.6606773,37.640625 41.6606773,37.203125 C41.6606773,36.765625 42.0262612,36.40625 42.47132,36.40625 L55.7753974,36.40625 C56.2204561,36.40625 56.5860401,36.765625 56.5860401,37.203125 C56.5860401,37.640625 56.2204561,38 55.7753974,38 L55.7753974,38 Z" id="Shape"></path>
                    <path d="M60.6869385,63.328125 L36.431237,63.328125 C35.9861783,63.328125 35.6205943,62.96875 35.6205943,62.53125 L35.6205943,51.4375 C35.6205943,51 35.9861783,50.640625 36.431237,50.640625 L60.6869385,50.640625 C61.1319972,50.640625 61.4975812,51 61.4975812,51.4375 L61.4975812,62.53125 C61.4975812,62.984375 61.1319972,63.328125 60.6869385,63.328125 L60.6869385,63.328125 Z M37.2418798,61.75 L59.8921907,61.75 L59.8921907,52.25 L37.2418798,52.25 L37.2418798,61.75 L37.2418798,61.75 Z" id="Shape"></path>
                    <path d="M60.6869385,57.796875 L36.431237,57.796875 C35.9861783,57.796875 35.6205943,57.4375 35.6205943,57 C35.6205943,56.5625 35.9861783,56.203125 36.431237,56.203125 L60.6869385,56.203125 C61.1319972,56.203125 61.4975812,56.5625 61.4975812,57 C61.4975812,57.4375 61.1319972,57.796875 60.6869385,57.796875 L60.6869385,57.796875 Z" id="Shape"></path>
                    <path d="M42.6938493,63.328125 C42.2487906,63.328125 41.8832066,62.96875 41.8832066,62.53125 L41.8832066,51.4375 C41.8832066,51 42.2487906,50.640625 42.6938493,50.640625 C43.1389081,50.640625 43.5044921,51 43.5044921,51.4375 L43.5044921,62.53125 C43.5044921,62.984375 43.1389081,63.328125 42.6938493,63.328125 L42.6938493,63.328125 Z" id="Shape"></path>
                    <path d="M54.4243262,63.328125 C53.9792674,63.328125 53.6136835,62.96875 53.6136835,62.53125 L53.6136835,51.4375 C53.6136835,51 53.9792674,50.640625 54.4243262,50.640625 C54.8693849,50.640625 55.2349689,51 55.2349689,51.4375 L55.2349689,62.53125 C55.2349689,62.984375 54.8693849,63.328125 54.4243262,63.328125 L54.4243262,63.328125 Z" id="Shape"></path>
                    <path d="M48.5590878,63.328125 C48.114029,63.328125 47.7484451,62.96875 47.7484451,62.53125 L47.7484451,51.4375 C47.7484451,51 48.114029,50.640625 48.5590878,50.640625 C49.0041465,50.640625 49.3697305,51 49.3697305,51.4375 L49.3697305,62.53125 C49.3697305,62.984375 49.0041465,63.328125 48.5590878,63.328125 L48.5590878,63.328125 Z" id="Shape"></path>
                    <path d="M71.8769869,72.65625 L64.7242571,72.65625 C64.2791983,72.65625 63.9136144,72.296875 63.9136144,71.859375 C63.9136144,71.421875 64.2791983,71.0625 64.7242571,71.0625 L71.0663442,71.0625 L71.0663442,20.90625 L61.8313753,20.90625 L61.8313753,23.28125 C61.8313753,23.71875 61.4657913,24.078125 61.0207326,24.078125 C60.5756738,24.078125 60.2100898,23.71875 60.2100898,23.28125 L60.2100898,20.109375 C60.2100898,19.671875 60.5756738,19.3125 61.0207326,19.3125 L71.8610919,19.3125 C72.3061507,19.3125 72.6717346,19.671875 72.6717346,20.109375 L72.6717346,71.875 C72.6876296,72.3125 72.3220456,72.65625 71.8769869,72.65625 L71.8769869,72.65625 Z" id="Shape"></path>
                    <path d="M124.552868,55.15625 L107.036628,55.15625 C106.750518,55.15625 106.480304,55 106.337249,54.765625 L97.5950242,39.859375 C97.4519696,39.609375 97.4519696,39.3125 97.5950242,39.0625 L106.353144,24.15625 C106.496199,23.90625 106.766413,23.765625 107.052522,23.765625 L124.552868,23.765625 C124.838977,23.765625 125.109191,23.921875 125.252246,24.15625 L134.010366,39.0625 C134.153421,39.3125 134.153421,39.609375 134.010366,39.859375 L125.252246,54.765625 C125.093296,55.015625 124.838977,55.15625 124.552868,55.15625 L124.552868,55.15625 Z M107.513476,53.578125 L124.091914,53.578125 L132.373186,39.46875 L124.091914,25.359375 L107.513476,25.359375 L99.2322046,39.46875 L107.513476,53.578125 L107.513476,53.578125 Z" id="Shape"></path>
                    <path d="M109.023497,55.15625 C108.578438,55.15625 108.212854,54.796875 108.212854,54.359375 L108.212854,24.5625 C108.212854,24.125 108.578438,23.765625 109.023497,23.765625 C109.468556,23.765625 109.83414,24.125 109.83414,24.5625 L109.83414,54.375 C109.818245,54.8125 109.468556,55.15625 109.023497,55.15625 L109.023497,55.15625 Z" id="Shape"></path>
                    <path d="M122.438839,55.15625 C121.99378,55.15625 121.628196,54.796875 121.628196,54.359375 L121.628196,24.5625 C121.628196,24.125 121.99378,23.765625 122.438839,23.765625 C122.883898,23.765625 123.249482,24.125 123.249482,24.5625 L123.249482,54.375 C123.249482,54.8125 122.883898,55.15625 122.438839,55.15625 L122.438839,55.15625 Z" id="Shape"></path>
                    <path d="M109.023497,40.265625 L98.2944022,40.265625 C97.8493435,40.265625 97.4837595,39.90625 97.4837595,39.46875 C97.4837595,39.03125 97.8493435,38.671875 98.2944022,38.671875 L109.023497,38.671875 C109.468556,38.671875 109.83414,39.03125 109.83414,39.46875 C109.818245,39.90625 109.468556,40.265625 109.023497,40.265625 L109.023497,40.265625 Z" id="Shape"></path>
                    <path d="M133.295093,40.265625 L122.438839,40.265625 C121.99378,40.265625 121.628196,39.90625 121.628196,39.46875 C121.628196,39.03125 121.99378,38.671875 122.438839,38.671875 L133.295093,38.671875 C133.740152,38.671875 134.105736,39.03125 134.105736,39.46875 C134.105736,39.90625 133.740152,40.265625 133.295093,40.265625 L133.295093,40.265625 Z" id="Shape"></path>
                    <path d="M109.023497,33.46875 L102.284036,33.46875 C101.838977,33.46875 101.473393,33.109375 101.473393,32.671875 C101.473393,32.234375 101.838977,31.875 102.284036,31.875 L109.023497,31.875 C109.468556,31.875 109.83414,32.234375 109.83414,32.671875 C109.83414,33.109375 109.468556,33.46875 109.023497,33.46875 L109.023497,33.46875 Z" id="Shape"></path>
                    <path d="M129.30546,33.46875 L122.804423,33.46875 C122.359364,33.46875 121.99378,33.109375 121.99378,32.671875 C121.99378,32.234375 122.359364,31.875 122.804423,31.875 L129.30546,31.875 C129.750518,31.875 130.116102,32.234375 130.116102,32.671875 C130.116102,33.109375 129.750518,33.46875 129.30546,33.46875 L129.30546,33.46875 Z" id="Shape"></path>
                    <path d="M109.023497,46.515625 L102.284036,46.515625 C101.838977,46.515625 101.473393,46.15625 101.473393,45.71875 C101.473393,45.28125 101.838977,44.921875 102.284036,44.921875 L109.023497,44.921875 C109.468556,44.921875 109.83414,45.28125 109.83414,45.71875 C109.818245,46.15625 109.468556,46.515625 109.023497,46.515625 L109.023497,46.515625 Z" id="Shape"></path>
                    <path d="M129.30546,46.515625 L122.438839,46.515625 C121.99378,46.515625 121.628196,46.15625 121.628196,45.71875 C121.628196,45.28125 121.99378,44.921875 122.438839,44.921875 L129.30546,44.921875 C129.750518,44.921875 130.116102,45.28125 130.116102,45.71875 C130.116102,46.15625 129.750518,46.515625 129.30546,46.515625 L129.30546,46.515625 Z" id="Shape"></path>
                    <path d="M115.953697,42.65625 C114.96821,42.65625 114.157567,41.859375 114.157567,40.890625 C114.157567,39.921875 114.96821,39.125 115.953697,39.125 C116.939185,39.125 117.749827,39.921875 117.749827,40.890625 C117.749827,41.859375 116.939185,42.65625 115.953697,42.65625 L115.953697,42.65625 Z M115.953697,40.71875 C115.858328,40.71875 115.778853,40.796875 115.778853,40.890625 C115.778853,40.984375 115.858328,41.0625 115.953697,41.0625 C116.049067,41.0625 116.128542,40.984375 116.128542,40.890625 C116.128542,40.796875 116.049067,40.71875 115.953697,40.71875 L115.953697,40.71875 Z" id="Shape"></path>
                    <path d="M92.1589496,4.46875 C92.1589496,4.203125 92.3814789,3.984375 92.6516932,3.984375 L92.7470629,3.984375 C92.9854872,3.984375 93.1285418,4.09375 93.2557015,4.265625 L95.1630961,6.734375 L95.1630961,4.4375 C95.1630961,4.171875 95.3856254,3.953125 95.6558397,3.953125 C95.9260539,3.953125 96.1485833,4.171875 96.1485833,4.4375 L96.1485833,7.96875 C96.1485833,8.234375 95.9260539,8.453125 95.6558397,8.453125 L95.6240498,8.453125 C95.3856254,8.453125 95.2425708,8.34375 95.1154112,8.171875 L93.1285418,5.609375 L93.1285418,7.984375 C93.1285418,8.25 92.9060124,8.46875 92.6357982,8.46875 C92.365584,8.46875 92.1430546,8.25 92.1430546,7.984375 L92.1430546,4.46875 L92.1589496,4.46875 Z M97.0387008,6.234375 C97.0387008,4.96875 98.0559779,3.9375 99.438839,3.9375 C100.837595,3.9375 101.823082,4.953125 101.823082,6.21875 L101.823082,6.234375 C101.823082,7.5 100.805805,8.53125 99.422944,8.53125 C98.0400829,8.5 97.0387008,7.484375 97.0387008,6.234375 L97.0387008,6.234375 Z M100.805805,6.234375 C100.805805,5.46875 100.233587,4.828125 99.438839,4.828125 C98.6440912,4.828125 98.0877678,5.453125 98.0877678,6.203125 L98.0877678,6.21875 C98.0877678,6.984375 98.6599862,7.609375 99.4547339,7.609375 C100.249482,7.609375 100.805805,6.984375 100.805805,6.234375 L100.805805,6.234375 Z M102.7132,4.484375 C102.7132,4.21875 102.935729,4 103.205943,4 L104.461645,4 C105.876296,4 106.861783,4.953125 106.861783,6.203125 L106.861783,6.21875 C106.861783,7.46875 105.876296,8.4375 104.461645,8.4375 L103.205943,8.4375 C102.935729,8.4375 102.7132,8.21875 102.7132,7.953125 L102.7132,4.484375 L102.7132,4.484375 Z M104.47754,7.546875 C105.288182,7.546875 105.828611,7.015625 105.828611,6.21875 L105.828611,6.203125 C105.828611,5.421875 105.288182,4.859375 104.47754,4.859375 L103.714582,4.859375 L103.714582,7.53125 L104.47754,7.53125 L104.47754,7.546875 Z M107.7519,7.9375 L107.7519,4.484375 C107.7519,4.21875 107.97443,4 108.244644,4 L110.740152,4 C110.978576,4 111.185211,4.203125 111.185211,4.4375 C111.185211,4.671875 110.978576,4.875 110.740152,4.875 L108.737388,4.875 L108.737388,5.78125 L110.469938,5.78125 C110.708362,5.78125 110.914997,5.984375 110.914997,6.21875 C110.914997,6.453125 110.708362,6.65625 110.469938,6.65625 L108.753283,6.65625 L108.753283,7.59375 L110.787837,7.59375 C111.026261,7.59375 111.232896,7.796875 111.232896,8.03125 C111.232896,8.265625 111.026261,8.46875 110.787837,8.46875 L108.260539,8.46875 C107.97443,8.4375 107.7519,8.21875 107.7519,7.9375 L107.7519,7.9375 Z M111.979959,7.96875 C111.868694,7.890625 111.789219,7.75 111.789219,7.609375 C111.789219,7.359375 111.995853,7.15625 112.250173,7.15625 C112.377332,7.15625 112.472702,7.203125 112.536282,7.25 C112.870076,7.5 113.251555,7.65625 113.696614,7.65625 C114.109883,7.65625 114.348307,7.5 114.348307,7.234375 L114.348307,7.21875 C114.348307,6.96875 114.189357,6.84375 113.442294,6.65625 C112.536282,6.421875 111.948169,6.1875 111.948169,5.296875 L111.948169,5.28125 C111.948169,4.484375 112.599862,3.9375 113.521769,3.9375 C114.062198,3.9375 114.539046,4.078125 114.952315,4.328125 C115.06358,4.390625 115.174845,4.53125 115.174845,4.71875 C115.174845,4.96875 114.96821,5.171875 114.713891,5.171875 C114.618521,5.171875 114.539046,5.140625 114.459572,5.109375 C114.125777,4.921875 113.823773,4.8125 113.505874,4.8125 C113.124395,4.8125 112.933656,4.984375 112.933656,5.203125 L112.933656,5.21875 C112.933656,5.515625 113.124395,5.609375 113.903248,5.796875 C114.825155,6.03125 115.333794,6.359375 115.333794,7.125 L115.333794,7.140625 C115.333794,8.015625 114.650311,8.515625 113.680719,8.515625 C113.092605,8.5 112.488597,8.3125 111.979959,7.96875 L111.979959,7.96875 Z M116.001382,6.234375 C116.001382,4.96875 116.970974,3.9375 118.353836,3.9375 C119.037319,3.9375 119.482377,4.109375 119.863856,4.390625 C119.959226,4.46875 120.054596,4.609375 120.054596,4.78125 C120.054596,5.046875 119.832066,5.25 119.561852,5.25 C119.418798,5.25 119.339323,5.203125 119.259848,5.15625 C118.989634,4.953125 118.68763,4.84375 118.337941,4.84375 C117.574983,4.84375 117.034554,5.46875 117.034554,6.21875 L117.034554,6.234375 C117.034554,7 117.574983,7.625 118.337941,7.625 C118.751209,7.625 119.037319,7.5 119.323428,7.28125 C119.402903,7.21875 119.498272,7.171875 119.625432,7.171875 C119.879751,7.171875 120.086386,7.375 120.086386,7.625 C120.086386,7.78125 120.006911,7.890625 119.911541,7.96875 C119.498272,8.3125 119.021424,8.53125 118.306151,8.53125 C116.986869,8.5 116.001382,7.5 116.001382,6.234375 L116.001382,6.234375 Z M120.960608,4.453125 C120.960608,4.1875 121.183138,3.96875 121.453352,3.96875 C121.723566,3.96875 121.946095,4.1875 121.946095,4.453125 L121.946095,5.75 L123.774015,5.75 L123.774015,4.453125 C123.774015,4.1875 123.996545,3.96875 124.266759,3.96875 C124.536973,3.96875 124.759502,4.1875 124.759502,4.453125 L124.759502,7.984375 C124.759502,8.25 124.536973,8.46875 124.266759,8.46875 C123.996545,8.46875 123.774015,8.25 123.774015,7.984375 L123.774015,6.65625 L121.946095,6.65625 L121.946095,7.984375 C121.946095,8.25 121.723566,8.46875 121.453352,8.46875 C121.183138,8.46875 120.960608,8.25 120.960608,7.984375 L120.960608,4.453125 L120.960608,4.453125 Z M125.64962,6.234375 C125.64962,4.96875 126.666897,3.9375 128.049758,3.9375 C129.448514,3.9375 130.434001,4.953125 130.434001,6.21875 L130.434001,6.234375 C130.434001,7.5 129.416724,8.53125 128.033863,8.53125 C126.651002,8.5 125.64962,7.484375 125.64962,6.234375 L125.64962,6.234375 Z M129.416724,6.234375 C129.416724,5.46875 128.844506,4.828125 128.049758,4.828125 C127.25501,4.828125 126.698687,5.453125 126.698687,6.203125 L126.698687,6.21875 C126.698687,6.984375 127.270905,7.609375 128.065653,7.609375 C128.860401,7.609375 129.416724,6.984375 129.416724,6.234375 L129.416724,6.234375 Z M131.133379,6.234375 C131.133379,4.96875 132.150657,3.9375 133.533518,3.9375 C134.932274,3.9375 135.917761,4.953125 135.917761,6.21875 L135.917761,6.234375 C135.917761,7.5 134.900484,8.53125 133.517623,8.53125 C132.134762,8.5 131.133379,7.484375 131.133379,6.234375 L131.133379,6.234375 Z M134.884589,6.234375 C134.884589,5.46875 134.31237,4.828125 133.517623,4.828125 C132.722875,4.828125 132.166551,5.453125 132.166551,6.203125 L132.166551,6.21875 C132.166551,6.984375 132.73877,7.609375 133.533518,7.609375 C134.328265,7.609375 134.884589,6.984375 134.884589,6.234375 L134.884589,6.234375 Z M136.807878,4.453125 C136.807878,4.1875 137.030408,3.96875 137.300622,3.96875 C137.570836,3.96875 137.793366,4.1875 137.793366,4.453125 L137.793366,7.546875 L139.621285,7.546875 C139.875605,7.546875 140.066344,7.75 140.066344,7.984375 C140.066344,8.21875 139.85971,8.421875 139.621285,8.421875 L137.284727,8.421875 C137.014513,8.421875 136.791983,8.203125 136.791983,7.9375 L136.791983,4.453125 L136.807878,4.453125 Z" id="Shape"></path>
                    <path d="M147.505183,16.5625 L83.2418798,16.5625 C82.796821,16.5625 82.431237,16.203125 82.431237,15.765625 C82.431237,15.328125 82.796821,14.96875 83.2418798,14.96875 L147.505183,14.96875 C147.950242,14.96875 148.315826,15.328125 148.315826,15.765625 C148.315826,16.203125 147.950242,16.5625 147.505183,16.5625 L147.505183,16.5625 Z" id="Shape"></path>
                    <path d="M36.431237,20.921875 L29.0877678,20.921875 C28.6427091,20.921875 28.2771251,20.5625 28.2771251,20.125 C28.2771251,19.6875 28.6427091,19.328125 29.0877678,19.328125 L36.431237,19.328125 C36.8762958,19.328125 37.2418798,19.6875 37.2418798,20.125 C37.2418798,20.5625 36.8762958,20.921875 36.431237,20.921875 L36.431237,20.921875 Z" id="Shape"></path>
                    <path d="M200.848652,20.921875 L193.505183,20.921875 C193.060124,20.921875 192.69454,20.5625 192.69454,20.125 C192.69454,19.6875 193.060124,19.328125 193.505183,19.328125 L200.848652,19.328125 C201.293711,19.328125 201.659295,19.6875 201.659295,20.125 C201.659295,20.5625 201.293711,20.921875 200.848652,20.921875 L200.848652,20.921875 Z" id="Shape"></path>
                </g>
            </g>
        </g>
    </g>
</svg>