<svg xmlns="http://www.w3.org/2000/svg" version="1" height="75" viewBox="0 0 2651 1022"><path d="M1251.2 593.4c0-40.3-20.5-60-64.6-80.2l-38.4-17.5c-33.1-14.8-47.1-28.9-47.1-54.3 0-32.7 24.7-42.9 65-42.9 27.4 0 59.3 3 75.6 4.9v-20.5c-13.3-2.7-44.8-6.8-76.4-6.8-58.5 0-89.7 20.1-89.7 65.4 0 38.4 23.2 58.1 61.2 75.6l38.4 17.9c37.2 17.5 50.2 30.8 50.2 58.5 0 38.4-23.9 52.4-65.4 52.4-31.5 0-59.3-2.7-78.3-4.9v20c12.5 2.7 45.2 6.8 78.3 6.8 60.4.1 91.2-25.4 91.2-74.4zm187.4 69.5V522.3c0-48.6-12.2-71.1-77.9-71.1-26.6 0-42.9 3.8-62.3 7.2v18.2c23.2-2.7 40.3-4.2 60.4-4.2 46 0 54.7 9.5 54.7 49.8v17.5h-35c-60.4 0-94.2 10.6-94.2 63.1v5.7c0 41 21.3 59.3 61.6 59.3 30.8 0 54.3-11 68.8-19.8v14.8h23.9zm-25.1-33c-11.4 7.2-36.9 18.6-62.7 18.6s-41.8-9.9-41.8-38.4v-7.2c0-36.9 19.8-43.7 69.5-43.7h35v70.7zm181.6-152.4v-20.9H1532v-28.1c0-31.9 3.4-43.3 30-43.3 11.4 0 25.5 1.1 34.2 1.9v-17.5c-9.1-2.3-23.6-4.2-37.2-4.2-46 0-52.1 27-52.1 63.1v28.1h-40.7v19l40.7 1.9v185.4h25.1V477.5h63.1zm179.8 90.8v-12.5c0-68-26.2-104.5-85.9-104.5-59.3 0-85.5 37.2-85.5 101.8v14.4c0 68.8 22.8 100.3 93.1 100.3 30.8 0 56.6-4.2 71.4-7.6v-19.8c-19 3-47.9 5.7-70.7 5.7-56.2 0-69.2-26.2-69.2-73.3v-4.6h146.8zm-25.9-20.9h-120.8l.4-3.4c0-35.7 10.3-71.1 60.4-71.1 49.8 0 60 34.2 60 71.1v3.4zm170.6-73.7v-22.4c-23.9 0-53.2 4.6-77.5 22v-16.7h-24.3v206.3h24.3V492.7c22.8-13.7 54.7-19 77.5-19zm206.4-8.4v-4.9c-.4-64.6-42.9-81.3-109.4-81.3-23.9 0-45.2.8-68 1.1v282.7h25.5V547.8c14.8.4 29.3.4 41.8.4 66.8 0 110.1-18.3 110.1-82.9zm-25.5 0c0 46.7-27.4 60.4-84.7 60.4-12.5 0-26.6 0-41.8-.4V403c11.8-.4 26.2-1.1 42.6-1.1 57 0 83.6 11.8 84 58.5v4.9zm195.7 197.6V522.3c0-48.6-12.2-71.1-77.9-71.1-26.6 0-42.9 3.8-62.3 7.2v18.2c23.2-2.7 40.3-4.2 60.4-4.2 46 0 54.7 9.5 54.7 49.8v17.5h-35c-60.4 0-94.2 10.6-94.2 63.1v5.7c0 41 21.3 59.3 61.6 59.3 30.8 0 54.3-11 68.8-19.8v14.8h23.9zm-25.1-33c-11.4 7.2-36.9 18.6-62.7 18.6s-41.8-9.9-41.8-38.4v-7.2c0-36.9 19.8-43.7 69.5-43.7h35v70.7zM2479 612c0-31.2-15.2-44.5-61.2-63.8l-14.8-6.1c-31.9-12.9-42.6-21.3-42.6-40.7 0-22.4 15.6-28.5 49.8-28.5 16 0 39.9 1.9 59.3 4.6v-19c-9.9-3-35-7.2-60.4-7.2-49.8 0-73.7 16-73.7 50.2 0 29.3 18.2 45.6 57.8 61.6l14.8 5.7c37.2 15.2 46.4 23.2 46.4 43.7 0 20.9-12.2 34.2-50.9 34.2-24.7 0-52.4-4.2-65.4-5.7v19.4c9.9 2.7 38.4 7.6 66.1 7.6 58.1-.1 74.8-26.7 74.8-56zm171.7 0c0-31.2-15.2-44.5-61.2-63.8l-14.8-6.1c-31.9-12.9-42.6-21.3-42.6-40.7 0-22.4 15.6-28.5 49.8-28.5 16 0 39.9 1.9 59.3 4.6v-19c-9.9-3-35-7.2-60.4-7.2-49.8 0-73.7 16-73.7 50.2 0 29.3 18.2 45.6 57.8 61.6l14.8 5.7c37.2 15.2 46.4 23.2 46.4 43.7 0 20.9-12.2 34.2-50.9 34.2-24.7 0-52.4-4.2-65.4-5.7v19.4c9.9 2.7 38.4 7.6 66.1 7.6 58.1-.1 74.8-26.7 74.8-56z" id="SaferPass_txt_1_" fill="#263343"/><path d="M143.1 806.8l.5-340.8 161.9 174.1zm324.2-329l.1-344.6 177.1 167.2z" id="bend_1_" fill-rule="evenodd" clip-rule="evenodd" fill="#993220"/><g id="symbol_bottom_1_"><linearGradient id="SVGID_1_" gradientUnits="userSpaceOnUse" x1="385.126" y1="547.128" x2="647.937" y2="800.922"><stop offset=".015" stop-color="#ad3a25"/><stop offset=".128" stop-color="#f05636"/></linearGradient><path fill-rule="evenodd" clip-rule="evenodd" fill="url(#SVGID_1_)" d="M637 291.1L467.3 477.8l59.4 63.6s5.9 3.8 6.7 13.1c0 11.5-6.8 14.5-6.8 14.5l-128 128.5s-5 6-9 6.5c-6.6.9-10-2.5-10-2.5L301.2 634 143.1 806.8l198 196.7s13.5 18.8 50.5 17.8c34.5.5 47-17.8 47-17.8l385-384.5s23-22 27-49.5c5.5-42-8.5-53.5-8.5-53.5L637 291.1z"/></g><path fill-rule="evenodd" clip-rule="evenodd" fill="#F05636" d="M214.5 728.8l170.3-186-59.4-63.6s-5.2-1.5-5.9-13.5c0-11.5 6-14.2 6-14.2l128-128.5s5-6 9-6.5c6.6-.9 10 2.5 10 2.5l77.7 67.5L711.7 210 511 17S497.5-.5 460.5.5C426 0 413.5 17 413.5 17l-385 384.5s-23 22-27 49.5C-4 493 10 504.5 10 504.5l204.5 224.3z" id="symbol_top"/><script id="wappalyzerEnvDetection"/></svg>