<svg xmlns="http://www.w3.org/2000/svg" xmlns:xlink="http://www.w3.org/1999/xlink" version="1.0" x="0" y="0" height="75px" viewBox="0 0 2651 1022" enable-background="new 0 0 2651 1022" xml:space="preserve">
<g id="SaferPass_txt_1_" enable-background="new    ">
	<path fill="#263343" d="M1251.2,593.4c0-40.3-20.5-60-64.6-80.2l-38.4-17.5c-33.1-14.8-47.1-28.9-47.1-54.3   c0-32.7,24.7-42.9,65-42.9c27.4,0,59.3,3,75.6,4.9v-20.5c-13.3-2.7-44.8-6.8-76.4-6.8c-58.5,0-89.7,20.1-89.7,65.4   c0,38.4,23.2,58.1,61.2,75.6l38.4,17.9c37.2,17.5,50.2,30.8,50.2,58.5c0,38.4-23.9,52.4-65.4,52.4c-31.5,0-59.3-2.7-78.3-4.9V661   c12.5,2.7,45.2,6.8,78.3,6.8C1220.4,667.9,1251.2,642.4,1251.2,593.4z"/>
	<path fill="#263343" d="M1438.6,662.9V522.3c0-48.6-12.2-71.1-77.9-71.1c-26.6,0-42.9,3.8-62.3,7.2v18.2   c23.2-2.7,40.3-4.2,60.4-4.2c46,0,54.7,9.5,54.7,49.8v17.5h-35c-60.4,0-94.2,10.6-94.2,63.1v5.7c0,41,21.3,59.3,61.6,59.3   c30.8,0,54.3-11,68.8-19.8v14.8H1438.6z M1413.5,629.9c-11.4,7.2-36.9,18.6-62.7,18.6s-41.8-9.9-41.8-38.4v-7.2   c0-36.9,19.8-43.7,69.5-43.7h35V629.9z"/>
	<path fill="#263343" d="M1595.1,477.5v-20.9H1532v-28.1c0-31.9,3.4-43.3,30-43.3c11.4,0,25.5,1.1,34.2,1.9v-17.5   c-9.1-2.3-23.6-4.2-37.2-4.2c-46,0-52.1,27-52.1,63.1v28.1h-40.7v19l40.7,1.9v185.4h25.1V477.5H1595.1z"/>
	<path fill="#263343" d="M1774.9,568.3v-12.5c0-68-26.2-104.5-85.9-104.5c-59.3,0-85.5,37.2-85.5,101.8v14.4   c0,68.8,22.8,100.3,93.1,100.3c30.8,0,56.6-4.2,71.4-7.6v-19.8c-19,3-47.9,5.7-70.7,5.7c-56.2,0-69.2-26.2-69.2-73.3v-4.6H1774.9z    M1749,547.4h-120.8l0.4-3.4c0-35.7,10.3-71.1,60.4-71.1c49.8,0,60,34.2,60,71.1V547.4z"/>
	<path fill="#263343" d="M1919.6,473.7v-22.4c-23.9,0-53.2,4.6-77.5,22v-16.7h-24.3v206.3h24.3V492.7   C1864.9,479,1896.8,473.7,1919.6,473.7z"/>
	<path fill="#263343" d="M2126,465.3v-4.9c-0.4-64.6-42.9-81.3-109.4-81.3c-23.9,0-45.2,0.8-68,1.1v282.7h25.5V547.8   c14.8,0.4,29.3,0.4,41.8,0.4C2082.7,548.2,2126,529.9,2126,465.3z M2100.5,465.3c0,46.7-27.4,60.4-84.7,60.4   c-12.5,0-26.6,0-41.8-0.4V403c11.8-0.4,26.2-1.1,42.6-1.1c57,0,83.6,11.8,84,58.5V465.3z"/>
	<path fill="#263343" d="M2296.2,662.9V522.3c0-48.6-12.2-71.1-77.9-71.1c-26.6,0-42.9,3.8-62.3,7.2v18.2   c23.2-2.7,40.3-4.2,60.4-4.2c46,0,54.7,9.5,54.7,49.8v17.5h-35c-60.4,0-94.2,10.6-94.2,63.1v5.7c0,41,21.3,59.3,61.6,59.3   c30.8,0,54.3-11,68.8-19.8v14.8H2296.2z M2271.1,629.9c-11.4,7.2-36.9,18.6-62.7,18.6s-41.8-9.9-41.8-38.4v-7.2   c0-36.9,19.8-43.7,69.5-43.7h35V629.9z"/>
	<path fill="#263343" d="M2479,612c0-31.2-15.2-44.5-61.2-63.8l-14.8-6.1c-31.9-12.9-42.6-21.3-42.6-40.7   c0-22.4,15.6-28.5,49.8-28.5c16,0,39.9,1.9,59.3,4.6v-19c-9.9-3-35-7.2-60.4-7.2c-49.8,0-73.7,16-73.7,50.2   c0,29.3,18.2,45.6,57.8,61.6l14.8,5.7c37.2,15.2,46.4,23.2,46.4,43.7c0,20.9-12.2,34.2-50.9,34.2c-24.7,0-52.4-4.2-65.4-5.7v19.4   c9.9,2.7,38.4,7.6,66.1,7.6C2462.3,667.9,2479,641.3,2479,612z"/>
	<path fill="#263343" d="M2650.7,612c0-31.2-15.2-44.5-61.2-63.8l-14.8-6.1c-31.9-12.9-42.6-21.3-42.6-40.7   c0-22.4,15.6-28.5,49.8-28.5c16,0,39.9,1.9,59.3,4.6v-19c-9.9-3-35-7.2-60.4-7.2c-49.8,0-73.7,16-73.7,50.2   c0,29.3,18.2,45.6,57.8,61.6l14.8,5.7c37.2,15.2,46.4,23.2,46.4,43.7c0,20.9-12.2,34.2-50.9,34.2c-24.7,0-52.4-4.2-65.4-5.7v19.4   c9.9,2.7,38.4,7.6,66.1,7.6C2634,667.9,2650.7,641.3,2650.7,612z"/>
</g>
<g id="bend_1_" enable-background="new    ">
	<polygon fill-rule="evenodd" clip-rule="evenodd" fill="#993220" points="143.1,806.8 143.6,466 305.5,640.1  "/>
	<polygon fill-rule="evenodd" clip-rule="evenodd" fill="#993220" points="467.3,477.8 467.4,133.2 644.5,300.4  "/>
</g>
<g id="symbol_bottom_1_" enable-background="new    ">
	<linearGradient id="SVGID_1_" gradientUnits="userSpaceOnUse" x1="385.1258" y1="547.1279" x2="647.937" y2="800.9217">
		<stop offset="1.500000e-02" style="stop-color:#AD3A25"/>
		<stop offset="0.1279" style="stop-color:#F05636"/>
	</linearGradient>
	<path fill-rule="evenodd" clip-rule="evenodd" fill="url(#SVGID_1_)" d="M637,291.1L467.3,477.8l59.4,63.6c0,0,5.9,3.8,6.7,13.1   c0,11.5-6.8,14.5-6.8,14.5l-128,128.5c0,0-5,6-9,6.5c-6.6,0.9-10-2.5-10-2.5L301.2,634L143.1,806.8l198,196.7   c0,0,13.5,18.8,50.5,17.8c34.5,0.5,47-17.8,47-17.8l385-384.5c0,0,23-22,27-49.5c5.5-42-8.5-53.5-8.5-53.5L637,291.1z"/>
</g>
<g id="symbol_top" enable-background="new    ">
	<path fill-rule="evenodd" clip-rule="evenodd" fill="#F05636" d="M214.5,728.8l170.3-186l-59.4-63.6c0,0-5.2-1.5-5.9-13.5   c0-11.5,6-14.2,6-14.2l128-128.5c0,0,5-6,9-6.5c6.6-0.9,10,2.5,10,2.5l77.7,67.5L711.7,210L511,17c0,0-13.5-17.5-50.5-16.5   C426,0,413.5,17,413.5,17l-385,384.5c0,0-23,22-27,49.5C-4,493,10,504.5,10,504.5L214.5,728.8z"/>
</g>
<wappalyzerData id="wappalyzerData" style="display: none"/><script id="wappalyzerEnvDetection" src="chrome-extension://gppongmhjkpfnbhagpmjfkannfbllamg/js/inject.js"/></svg>