<svg viewBox="0 0 386 443" xmlns="http://www.w3.org/2000/svg"><g fill="none" fill-rule="evenodd"><path d="M196.4 1.4c-2.1-1.2-4.7-1.2-6.8 0L4 108.5c-2.1 1.2-3.4 3.5-3.4 5.9v214.3c0 2.4 1.3 4.7 3.4 5.9l185.6 107.1c1.1.6 2.2.9 3.4.9 1.2 0 2.4-.3 3.4-.9L382 334.6c2.1-1.2 3.4-3.5 3.4-5.9V114.4c0-2.4-1.3-4.7-3.4-5.9L196.4 1.4z" fill="#0F1010"/><path d="M373 326.049L193.049 430 13 326.049v-208L193.049 14 373 118.049v208z" fill-opacity=".933" fill="#2FC3F0"/><g transform="translate(108 345)"><path d="M161.3 16.2c-.5-.9-1.7-1.2-2.5-.7L92.5 53.8l28.2-36c.6-.8.5-2-.3-2.6-.8-.6-2-.5-2.6.3L87 54.8V16.4c0-1-.8-1.9-1.9-1.9-1.1 0-1.9.8-1.9 1.9v38.4L52.4 15.5c-.6-.8-1.8-.9-2.6-.3-.8.6-.9 1.8-.3 2.6l28.2 36-67.6-39c-.9-.5-2-.2-2.5.7-.5.9-.2 2 .7 2.5l75.9 43.8s.4.1.5.1c0 0 .4.1.5.1l.5-.1 75.1-43.2c.7-.4 1-1.6.5-2.5z" fill="#000"/><circle fill="#050505" cx="166.3" cy="12.7" r="2.3"/><circle fill="#000" cx="2.8" cy="12.7" r="2.3"/><circle fill="#000" cx="84.8" cy="5.7" r="2.3"/><path d="M36.4 4.8c-.3-.6-.1-1.3.5-1.7l3.4-2c1.1-.6 2.2-.8 3-.6.7.2 1.2.6 1.6 1.3.6 1.1.4 2-.1 2.8 1.4-.2 2.4 0 3.2 1.3 1 1.8.1 3.5-2.1 4.8l-3.5 2c-.6.3-1.3.1-1.7-.5l-4.3-7.4zm5.7.5c.9-.5 1.4-1.2.9-1.9-.4-.6-1.1-.7-2-.2l-2.1 1.2 1.2 2.1 2-1.2zM45 8.9c.9-.5 1.3-1.2.9-1.9s-1.1-.8-2.2-.1l-2.5 1.4 1.2 2.1L45 8.9zm76.8-2.6l7.8-5.7c.5-.4 1.2-.5 1.7-.1l.1.1c.6.3.8.9.7 1.6l-1 9.6c0 .2-.1.4-.1.5-.3.6-1 .8-1.6.4-.5-.3-.7-.8-.6-1.3l.2-1.9-4.3-2.5-1.6 1.2c-.4.3-.9.4-1.4.1-.6-.3-.7-1-.4-1.6.2-.2.3-.3.5-.4zm7.5.8l.5-4-3.2 2.4 2.7 1.6z" fill="#231F20"/></g><g stroke-width="3.6" stroke="#000"><path d="M69 304c8.837 0 16-6.94 16-15.5 0-8.56-7.163-15.5-16-15.5s-16 6.94-16 15.5c0 8.56 7.163 15.5 16 15.5z" fill-opacity=".431" fill="#05C3FF"/><path d="M69 292.448v25.104" stroke-linecap="square"/><path d="M272 305c8.837 0 16-6.94 16-15.5 0-8.56-7.163-15.5-16-15.5s-16 6.94-16 15.5c0 8.56 7.163 15.5 16 15.5z" fill-opacity=".431" fill="#05C3FF"/><path d="M272 293.448v25.104" stroke-linecap="square"/><path fill-opacity=".431" fill="#05C3FF" d="M318.5 273l14.5 31h-29z"/><path d="M318 294.448v25.104" stroke-linecap="square"/></g><path stroke="#020101" stroke-width="4" d="M192 164l62 155H130z"/><path d="M13.5 320h363.012" stroke="#090909" stroke-width="4" stroke-linecap="square"/><path d="M316.955 193.334c0-15.596-55.292-27.986-123.5-27.674-68.207.312-123.5 13.207-123.5 28.803 0 15.595 55.293 27.985 123.5 27.674 68.208-.312 123.5-13.207 123.5-28.803z" stroke="#080808" stroke-width="3.88" fill="#2DB7E1"/><path d="M96.455 203.5v7m10-5v7m10-7v10m10-10v10m10-9v10m10-9v10m10-10v10m10-9v10m10-10v10m10-9v10m10-10v10m10-11v10m10-10v10m10-10v10m10-10v10m10-10v10m10-11v10m10-11v10m10-12v10m10-13v10" stroke="#000" stroke-width="3" stroke-linecap="square"/><path d="M193.455 211.637c70.417 0 127.5-12.312 127.5-27.5s-57.083-27.5-127.5-27.5c-70.416 0-127.5 12.312-127.5 27.5s57.084 27.5 127.5 27.5z" stroke="#080808" stroke-width="4" fill="#2DB7E1"/><path d="M152.739 177.621c7.524 7.798 24.018 10.915 41.122 10.915 16.292 0 30.59-4.298 37.702-10.915 3.404-3.167 4.637-2.562 4.637-10.361 0-24.092-19.53-43.623-43.622-43.623s-43.623 19.53-43.623 43.623c0 6.988.71 7.176 3.784 10.361z" stroke="#050404" stroke-width="4" fill="#2DB7E1"/><path d="M210.154 136.816c12.164 3.412 13.31 15.716 13.31 15.716" stroke="#000" stroke-width="3"/><text font-family="Helvetica" font-size="30" font-weight="260" fill="#070707"><tspan x="93" y="108">NODESCHOOL</tspan></text><path d="M161.5 240h23.565c3.278 0 5.935 3.58 5.935 7.992v8.016c0 4.414-2.66 7.95-5.932 7.9L152 263.39m89.001 24.625l-40.592-.389a7.717 7.717 0 0 1-7.694-8.064l.06-1.567c.169-4.416 3.897-7.995 8.31-7.995h33.912" stroke="#000" stroke-width="4"/></g></svg>